<svg xmlns="http://www.w3.org/2000/svg" xmlns:xlink="http://www.w3.org/1999/xlink" width="600.796" height="268.416" viewBox="0 0 600.796 268.416">
  <defs>
    <linearGradient id="linear-gradient" x1="0.5" x2="0.5" y2="1" gradientUnits="objectBoundingBox">
      <stop offset="0" stop-color="#fe9b24"/>
      <stop offset="0.46" stop-color="#f77824"/>
      <stop offset="1" stop-color="#ff5a1a"/>
    </linearGradient>
    <linearGradient id="linear-gradient-10" x1="0.5" x2="0.362" y2="1.729" gradientUnits="objectBoundingBox">
      <stop offset="0" stop-color="#ff5a1a"/>
      <stop offset="1" stop-color="#0652dd"/>
    </linearGradient>
    <linearGradient id="linear-gradient-11" x1="0.5" x2="0.5" y2="1" gradientUnits="objectBoundingBox">
      <stop offset="0" stop-color="#7592af"/>
      <stop offset="1" stop-color="#666e75"/>
    </linearGradient>
  </defs>
  <g id="bee" transform="translate(-1041 -1881.584)">
    <rect id="Rectangle_152" data-name="Rectangle 152" width="22.747" height="28.813" transform="translate(1342.847 1901.299)" fill="#2f2e41"/>
    <path id="Path_557" data-name="Path 557" d="M609.989,167.525c-2.037,6.03-5.16,11.525-11.525,11.525s-11.166-5.17-11.525-11.525c-.458-8.12,5.013-11.559,11.525-11.525C606.156,156.039,612.406,160.368,609.989,167.525Z" transform="translate(755.908 1734.684)" fill="#2f2e41"/>
    <path id="Path_558" data-name="Path 558" d="M617.9,223.541s-1.82,10.919-.91,11.222-10.312,1.516-10.312,1.516,3.336-8.189,2.426-9.705S617.9,223.541,617.9,223.541Z" transform="translate(742.139 1687.627)" fill="#ffb8b8"/>
    <path id="Path_559" data-name="Path 559" d="M617.9,223.541s-1.82,10.919-.91,11.222-10.312,1.516-10.312,1.516,3.336-8.189,2.426-9.705S617.9,223.541,617.9,223.541Z" transform="translate(742.139 1687.627)" opacity="0.1"/>
    <path id="Path_560" data-name="Path 560" d="M698.015,285.974l5.011,3.978s-4.142-20.983-4.258-22.525-4.012-12.105-8.184-10.479,2.96,13.2,2.96,13.2l4.66,16.769Z" transform="translate(684.591 1664.471)" fill="#ffb8b8"/>
    <circle id="Ellipse_244" data-name="Ellipse 244" cx="8.796" cy="8.796" r="8.796" transform="translate(1344.871 1899.34)" fill="#ffb8b8"/>
    <path id="Path_561" data-name="Path 561" d="M579.479,251.361l-3.943-1.82s-2.123,3.943-3.336,3.943-11.525,2.123-11.525,4.246,3.033,17.288,3.033,17.288,6.066,14.558,6.369,14.558,21.837-2.73,21.837-2.73l1.213-3.336,1.82-19.714s-7.279-4.853-7.279-6.369-.607-6.672-1.82-6.672-3.336,1.82-3.336,1.82Z" transform="translate(774.188 1669.512)" fill="#ecf0f1"/>
    <path id="Path_562" data-name="Path 562" d="M662.585,297.754l2.73-1.213s2.123,3.943,2.73,4.246a4.168,4.168,0,0,1,1.516,2.426c0,.607,1.82,5.459,3.336,5.763s3.943,1.516,3.64,2.426a2.1,2.1,0,0,0,0,1.516l1.213-1.516,6.369,4.853s3.336,10.312-1.516,10.009-9.1-2.73-11.222-3.943-2.123-.607-3.336-2.426-6.369-5.156-6.369-5.156Z" transform="translate(703.82 1636.768)" fill="#ecf0f1"/>
    <path id="Path_563" data-name="Path 563" d="M520.209,364.422l-2.426,1.213.607,4.549s-33.666,119.194-28.813,120.1,18.5,3.336,25.78,5.156,49.437,7.279,50.953,2.426-7.279-114.038-18.2-126.777c0,0-5.459-6.976-5.156-7.886a3.349,3.349,0,0,0-.3-2.123s.3-.607-3.033.3-4.853.91-5.763.607-2.426-1.516-3.336-.607-3.64,2.426-4.853,2.123-1.82-2.123-3.033-.91A10.47,10.47,0,0,1,520.209,364.422Z" transform="translate(824.056 1591.936)" fill="url(#linear-gradient)"/>
    <path id="Path_564" data-name="Path 564" d="M494.817,784.541s-1.82,9.705,0,10.009,10.919.91,11.222.3-2.123-9.1-3.033-9.705S494.817,784.541,494.817,784.541Z" transform="translate(820.634 1296.773)" fill="#2f2e41"/>
    <path id="Path_565" data-name="Path 565" d="M677.837,788.541s1.82,8.492,0,8.8-10.919.91-11.222.3,2.123-7.886,3.033-8.492S677.837,788.541,677.837,788.541Z" transform="translate(700.396 1293.988)" fill="#2f2e41"/>
    <path id="Path_566" data-name="Path 566" d="M503.175,350.074s12.435,3.336,15.468,3.943,6.369,3.64,6.672,4.853,3.033,6.672,5.156,5.459,0-11.525-1.516-11.828-20.017-5.459-20.017-5.459Z" transform="translate(814.248 1601.582)" fill="#ffb8b8"/>
    <path id="Path_567" data-name="Path 567" d="M503.884,274.541h-3.336L481.137,289.1s-4.549,1.213-4.246,2.123-4.549,6.369-1.516,7.582,5.459,1.516,6.672,2.426,8.8-4.246,8.8-4.246l-1.213-.91s13.951-4.853,15.165-4.246S503.884,274.541,503.884,274.541Z" transform="translate(834.314 1652.094)" fill="#ecf0f1"/>
    <path id="Path_568" data-name="Path 568" d="M439,175.6l7.279,4.549-.607,16.378,2.123-3.943,1.213,3.943V180.148h5.156l-.3-2.73-6.066.91-7.886-4.246Z" transform="translate(908.146 1746.336)" fill="url(#linear-gradient)"/>
    <path id="Path_569" data-name="Path 569" d="M581.068,172s-.1-.557-4.011.91-6.255,12.289-4.3,18.644a5.823,5.823,0,0,1-.9,5.7A9.415,9.415,0,0,0,575.2,211.88q.242.106.494.209l2.444,1.466a11.178,11.178,0,0,1-1.557-9.344,26.889,26.889,0,0,0,.485-13.765c-.179-.768-.382-1.56-.613-2.368-1.955-6.844-1-6.053,5.839-12.9a43.5,43.5,0,0,0,7.333,4.4c3.422,1.467,6.355,2.933,3.911,7.821s-8.31,9.288-4.4,15.643,4.4,3.911,3.911,6.355h0l-.489,2.444,2.933-2.933-1.955,3.911s6.355,0,8.31-4.888l.978.978s3.911-6.844-3.422-13.2c0,0-2.444-1.467.978-6.355s.794-15.4-3.606-17.354S581.068,172,581.068,172Z" transform="translate(767.913 1724.139)" fill="#2f2e41"/>
    <circle id="Ellipse_245" data-name="Ellipse 245" cx="4.549" cy="4.549" r="4.549" transform="translate(1349.823 1884.01)" fill="#2f2e41"/>
    <path id="Path_570" data-name="Path 570" d="M604.91,130.549A4.55,4.55,0,0,1,609,126.023c-.149-.015-.3-.023-.455-.023a4.549,4.549,0,1,0,0,9.1c.154,0,.305-.008.455-.023A4.55,4.55,0,0,1,604.91,130.549Z" transform="translate(744.002 1755.584)" fill="#2f2e41"/>
    <ellipse id="Ellipse_246" data-name="Ellipse 246" cx="0.607" cy="1.213" rx="0.607" ry="1.213" transform="translate(1361.954 1905.848)" fill="#ffb8b8"/>
    <path id="Path_571" data-name="Path 571" d="M302.005,719.741c2.034,7.519,9,12.175,9,12.175s3.669-7.534,1.635-15.053-9-12.175-9-12.175S299.971,712.222,302.005,719.741Z" transform="translate(954.833 1352.408)" fill="#a3cb38"/>
    <path id="Path_572" data-name="Path 572" d="M281.229,735.461c5.581,5.433,6.263,13.785,6.263,13.785s-8.367-.457-13.949-5.89-6.263-13.785-6.263-13.785S275.648,730.028,281.229,735.461Z" transform="translate(978.597 1335.072)" fill="url(#linear-gradient)"/>
    <rect id="Rectangle_153" data-name="Rectangle 153" width="196.534" height="0.607" transform="translate(1251.345 2091.475)" fill="#2f2e41"/>
    <path id="Path_573" data-name="Path 573" d="M324.061,800.927h-7.886v-7.886h7.886Zm-7.279-.607h6.672v-6.672h-6.672Z" transform="translate(944.532 1290.854)" fill="#0652dd"/>
    <path id="Path_574" data-name="Path 574" d="M66.878,388.33H0V347.082H76.127v28.913" transform="translate(1214 1625.805)" fill="#f2f2f2"/>
    <path id="Path_575" data-name="Path 575" d="M78.181,376.936H11V335.082H87.733V364.3h-.607v-28.61H11.607V376.33H78.181Z" transform="translate(1206.336 1634.166)"/>
    <path id="Path_576" data-name="Path 576" d="M281.153,450.754H263v-.607h15.816L263,441.347l.295-.53Z" transform="translate(1030.766 1560.5)"/>
    <rect id="Rectangle_154" data-name="Rectangle 154" width="59.142" height="0.607" transform="translate(1226.132 1983.807)"/>
    <rect id="Rectangle_155" data-name="Rectangle 155" width="59.142" height="0.607" transform="translate(1226.132 1989.871)"/>
    <rect id="Rectangle_156" data-name="Rectangle 156" width="59.142" height="0.607" transform="translate(1226.132 1995.938)"/>
    <circle id="Ellipse_247" data-name="Ellipse 247" cx="2.49" cy="2.49" r="2.49" transform="translate(1308.256 2008.352)" fill="url(#linear-gradient)"/>
    <rect id="Rectangle_157" data-name="Rectangle 157" width="28.292" height="19.465" transform="translate(1271.02 1903.969)" fill="#f2f2f2"/>
    <path id="Path_578" data-name="Path 578" d="M384.791,212.165h-28.9V192.093h28.9Zm-28.292-.607h27.686V192.7H356.5Z" transform="translate(916.861 1709.537)"/>
    <path id="Path_579" data-name="Path 579" d="M208.35,122.659l-14.2-9.851.346-.5,13.861,9.614,14.087-9.615.342.5Z" transform="translate(1078.737 1789.375)"/>
    <circle id="Ellipse_248" data-name="Ellipse 248" cx="2.49" cy="2.49" r="2.49" transform="translate(1284.6 1909.176)" fill="url(#linear-gradient)"/>
    <rect id="Rectangle_158" data-name="Rectangle 158" width="28.292" height="19.465" transform="translate(1417.51 2003.451)" fill="#f2f2f2"/>
    <path id="Path_585" data-name="Path 585" d="M0,0H6.066V1.82H0Z" transform="translate(1438.74 2005.643)" fill="url(#linear-gradient)"/>
    <rect id="Rectangle_160" data-name="Rectangle 160" width="13.951" height="1.213" transform="translate(1430.855 2010.799)" fill="#fff"/>
    <rect id="Rectangle_161" data-name="Rectangle 161" width="20.321" height="1.213" transform="translate(1424.486 2013.227)" fill="#fff"/>
    <rect id="Rectangle_162" data-name="Rectangle 162" width="20.321" height="1.213" transform="translate(1424.486 2015.652)" fill="#fff"/>
    <path id="Path_582" data-name="Path 582" d="M628.249,114.33h66.878V73.082H619v28.913" transform="translate(782.738 1816.703)" fill="#f2f2f2"/>
    <path id="Path_583" data-name="Path 583" d="M682.733,102.936H615.552v-.607h66.574V61.689h-75.52V90.3H606V61.082h76.733Z" transform="translate(791.796 1825.064)"/>
    <path id="Path_584" data-name="Path 584" d="M565.3,176.754H547.147L565,166.817l.295.53-15.812,8.8H565.3Z" transform="translate(832.799 1751.396)"/>
    <rect id="Rectangle_163" data-name="Rectangle 163" width="59.142" height="0.607" transform="translate(1406.591 1900.703)"/>
    <rect id="Rectangle_164" data-name="Rectangle 164" width="59.142" height="0.607" transform="translate(1406.591 1906.77)"/>
    <rect id="Rectangle_165" data-name="Rectangle 165" width="59.142" height="0.607" transform="translate(1406.591 1912.836)"/>
    <circle id="Ellipse_249" data-name="Ellipse 249" cx="2.49" cy="2.49" r="2.49" transform="translate(1378.621 1925.25)" fill="url(#linear-gradient)"/>
    <rect id="Rectangle_166" data-name="Rectangle 166" width="8.492" height="7.886" transform="translate(1260.708 2083.869)" fill="url(#linear-gradient)"/>
    <ellipse id="Ellipse_250" data-name="Ellipse 250" cx="300.398" cy="30.844" rx="300.398" ry="30.844" transform="translate(1041 2088.313)" fill="url(#linear-gradient)"/>
    <path id="Path_472" data-name="Path 472" d="M397.608,708.663c-.073-.119-1.8-2.995-2.392-8.966-.548-5.478-.2-14.712,4.593-27.593a55.644,55.644,0,0,0-2.2-44.286l.551-.32a48.874,48.874,0,0,1,4.611,13.063,56.988,56.988,0,0,1-2.36,31.765c-9.057,24.36-2.324,35.892-2.255,36.005Z" transform="translate(720.088 1390.68)" fill="#3f3d56"/>
    <circle id="Ellipse_224" data-name="Ellipse 224" cx="4.137" cy="4.137" r="4.137" transform="translate(1110.011 2008.791)" fill="#0652dd"/>
    <circle id="Ellipse_225" data-name="Ellipse 225" cx="4.137" cy="4.137" r="4.137" transform="translate(1123.06 2024.066)" fill="#3f3d56"/>
    <circle id="Ellipse_226" data-name="Ellipse 226" cx="4.137" cy="4.137" r="4.137" transform="translate(1114.148 2034.252)" fill="#e91e63"/>
    <circle id="Ellipse_227" data-name="Ellipse 227" cx="4.137" cy="4.137" r="4.137" transform="translate(1124.969 2042.846)" fill="url(#linear-gradient-10)"/>
    <circle id="Ellipse_228" data-name="Ellipse 228" cx="4.137" cy="4.137" r="4.137" transform="translate(1110.966 2056.213)" fill="#3f3d56"/>
    <path id="Path_473" data-name="Path 473" d="M409.582,844.823s-4.137-10.184,8.275-17.823Z" transform="translate(710.613 1254.672)" fill="#3f3d56"/>
    <path id="Path_474" data-name="Path 474" d="M359.76,859.418s-1.883-10.83-16.457-10.737Z" transform="translate(755.346 1239.893)" fill="#3f3d56"/>
    <path id="Path_475" data-name="Path 475" d="M613.131,317s.318,8.275-1.591,10.184,9.548,8.593,9.548,8.593l6.684-10.5s-2.546-4.456-1.91-8.275Z" transform="translate(595.86 1603.949)" fill="#a0616a"/>
    <path id="Path_476" data-name="Path 476" d="M305.5,683.5v7.957l9.866.637-.637-8.593Z" transform="translate(882.963 1405.652)" fill="#a0616a"/>
    <path id="Path_477" data-name="Path 477" d="M454.366,683.5v7.957l-9.866.637.637-8.593Z" transform="translate(788.202 1405.652)" fill="#a0616a"/>
    <path id="Path_478" data-name="Path 478" d="M553.956,564.759s-5.092,18.459-1.91,33.1c0,0,0,6.365,1.273,7.638s1.591,1.273.637,1.91-2.864,2.228-1.91,3.183,1.273,2.228.636,2.546a1.458,1.458,0,0,0-.636,2.228c.636,1.273-3.183,35.327-3.183,35.327s-3.819,4.137,0,4.456,10.184,1.91,10.821-.637S565.414,616,565.414,616s.636-.955,1.91-2.546.637-2.228.637-2.546,6.683-30.553,6.683-30.553,9.866,34.373,10.821,35.009,1.273.636,1.273,1.591-.637,1.591,0,2.546a16.53,16.53,0,0,1,.955,1.591s1.591,35.646,4.774,35.646,12.731-.637,11.776-3.5-2.228-2.228-2.228-2.228,2.228-29.28-3.183-37.873v-7c0-.636.318-.955,0-1.591s.955-38.51-5.092-40.738S553.956,564.759,553.956,564.759Z" transform="translate(639.599 1436.234)" fill="#ecf0f1"/>
    <path id="Path_479" data-name="Path 479" d="M530.4,858.046s-1.591-2.546-3.819-2.546-3.819,2.546-3.819,2.546L517.031,866s-8.275,5.092-5.092,7.957,11.776,1.273,11.776,1.273,7-5.092,7.957-5.41a20.2,20.2,0,0,0,3.819-2.228c.318-.318-.637-11.776-1.591-10.98S532.308,859.956,530.4,858.046Z" transform="translate(664.111 1236.834)" fill="#ecf0f1"/>
    <path id="Path_480" data-name="Path 480" d="M692.458,858.046s1.591-2.546,3.819-2.546,3.819,2.546,3.819,2.546L705.826,866s8.275,5.092,5.092,7.957-11.776,1.273-11.776,1.273-7-5.092-7.957-5.41a20.2,20.2,0,0,1-3.819-2.228c-.318-.318.637-11.776,1.591-10.98S690.549,859.956,692.458,858.046Z" transform="translate(544.062 1236.834)" fill="#ecf0f1"/>
    <path id="Path_504" data-name="Path 504" d="M11.458,0C17.785,0,22.9,5.1,22.9,12.484c0,.139.993-.211,1.387,0,.473.256.53,1.946.53,1.946s-.282,2.026-.966,2.635c-.394.35-1.363.523-1.427.833-.128.617-.143-.049-.382.639-1.639,4.739-5.764,8.214-10.584,8.214C5.13,26.751,0,20.763,0,13.375S5.13,0,11.458,0Z" transform="translate(1203.103 1898.814)" fill="#a0616a"/>
    <path id="Path_481" data-name="Path 481" d="M582.051,339.458s-2.141.118-3.139-3.124L562,348.688l7,18.778s.955,10.184,0,13.049a25.573,25.573,0,0,0-1.591,6.365c0,1.273-6.684,22.6-4.138,23.552s41.374,4.774,42.329-1.591-3.183-48.376-3.183-48.376l6.684-16.231L592.854,333.6S591.28,340.095,582.051,339.458Z" transform="translate(629.486 1592.631)" fill="#e91e63"/>
    <path id="Path_482" data-name="Path 482" d="M545.206,444.5l-1.273,9.866a50.738,50.738,0,0,0-3.819,24.506l-.318,9.23s-3.183,15.913,3.183,16.55,2.228-17.5,2.228-17.5l3.5-8.593,3.584-19.116,1.827-13.347Z" transform="translate(645.167 1517.029)" fill="#a0616a"/>
    <path id="Path_483" data-name="Path 483" d="M561.784,379.5l-4.615.477s-3.023,22.438-2.069,22.438,11.776,2.546,12.094,1.91S561.784,379.5,561.784,379.5Z" transform="translate(634.317 1561.342)" fill="#e91e63"/>
    <path id="Path_503" data-name="Path 503" d="M561.784,379.5l-4.615.477s-3.023,22.438-2.069,22.438,11.776,2.546,12.094,1.91S561.784,379.5,561.784,379.5Z" transform="translate(632.317 1561.342)" fill="#424949" opacity="0.16"/>
    <path id="Path_486" data-name="Path 486" d="M687.978,433.5v13.049s.318,15.913-5.092,25.779l-2.864,6.365-3.785,9.907s-6.164-1.851-5.207-4.3c1.378-3.529,3.582-8.151,3.582-8.151l4.143-24.226L676.2,435.728Z" transform="translate(555.227 1524.527)" fill="#a0616a"/>
    <path id="Path_487" data-name="Path 487" d="M685.046,364.5l6.206.8s7.479,22.756,5.57,23.711S682.5,390.6,682.5,390.6Z" transform="translate(547.337 1571.566)" fill="#e91e63"/>
    <path id="Path_502" data-name="Path 502" d="M685.046,364.5l6.206.8s7.479,22.756,5.57,23.711S682.5,390.6,682.5,390.6Z" transform="translate(548.337 1571.566)" fill="#e91e63" opacity="0.09"/>
    <path id="Path_475-2" data-name="Path 475" d="M625.311,317s-.3,7.905,1.52,9.729-9.121,8.209-9.121,8.209l-6.385-10.033s2.432-4.257,1.824-7.905Z" transform="translate(517.939 1612.51)" fill="#a0616a"/>
    <path id="Path_476-2" data-name="Path 476" d="M314.925,683.5v7.6l-9.425.608.608-8.209Z" transform="translate(847.936 1406.695)" fill="#a0616a"/>
    <path id="Path_477-2" data-name="Path 477" d="M444.5,683.5v7.6l9.425.608-.608-8.209Z" transform="translate(666.674 1406.695)" fill="#a0616a"/>
    <path id="Path_478-2" data-name="Path 478" d="M595.269,564.681s4.865,17.635,1.824,31.62c0,0,0,6.081-1.216,7.3s-1.52,1.216-.608,1.824,2.736,2.128,1.824,3.04-1.216,2.128-.608,2.432a1.392,1.392,0,0,1,.608,2.128c-.608,1.216,3.04,33.749,3.04,33.749s3.648,3.953,0,4.257-9.729,1.824-10.337-.608-5.473-36.789-5.473-36.789-.608-.912-1.824-2.432-.608-2.128-.608-2.432-6.385-29.188-6.385-29.188-9.425,32.837-10.337,33.445-1.216.608-1.216,1.52.608,1.52,0,2.432a15.8,15.8,0,0,0-.912,1.52s-1.52,34.053-4.561,34.053-12.162-.608-11.25-3.344,2.128-2.128,2.128-2.128S547.231,619.1,552.4,610.9v-6.689c0-.608-.3-.912,0-1.52s-.912-36.789,4.865-38.917S595.269,564.681,595.269,564.681Z" transform="translate(562.728 1441.295)" fill="url(#linear-gradient-11)"/>
    <path id="Path_479-2" data-name="Path 479" d="M516.135,857.932s1.52-2.432,3.649-2.432,3.648,2.432,3.648,2.432l5.473,7.6s7.905,4.865,4.865,7.6-11.25,1.216-11.25,1.216-6.689-4.865-7.6-5.169a19.3,19.3,0,0,1-3.648-2.128c-.3-.3.608-11.25,1.52-10.49S514.311,859.757,516.135,857.932Z" transform="translate(640.949 1237.736)" fill="#2f2e41"/>
    <path id="Path_480-2" data-name="Path 480" d="M705.634,857.932s-1.52-2.432-3.648-2.432-3.649,2.432-3.649,2.432l-5.473,7.6s-7.905,4.865-4.865,7.6,11.25,1.216,11.25,1.216,6.689-4.865,7.6-5.169a19.3,19.3,0,0,0,3.648-2.128c.3-.3-.608-11.25-1.52-10.49S707.459,859.757,705.634,857.932Z" transform="translate(411.317 1237.736)" fill="#2f2e41"/>
    <path id="Path_505" data-name="Path 505" d="M9.1,0a10.946,10.946,0,0,1,0,21.891A10.765,10.765,0,0,1-1.389,12.54c-.074-.456-.4-.292-.4-.885,0-.221-.15-.287-.433-.49A4.772,4.772,0,0,1-2.6,9.991a3.933,3.933,0,0,1,0-1.876C-1.528,3.316,3.873,0,9.1,0Z" transform="translate(1128.834 1912.027)" fill="#a0616a"/>
    <path id="Path_481-2" data-name="Path 481" d="M587.844,339.2s2.045.113,3-2.984L607,348.014l-6.689,17.939s-.912,9.729,0,12.466a24.431,24.431,0,0,1,1.52,6.081c0,1.216,6.385,21.587,3.953,22.5s-39.526,4.561-40.438-1.52,3.04-46.214,3.04-46.214L562,343.757,577.523,333.6S579.026,339.8,587.844,339.2Z" transform="translate(552.975 1600.953)" fill="#0652dd"/>
    <path id="Path_482-2" data-name="Path 482" d="M547.513,444.5l1.216,9.425a48.47,48.47,0,0,1,3.649,23.411l.3,8.817s3.04,15.2-3.04,15.81-2.128-16.722-2.128-16.722l-3.345-8.209-3.424-18.261L539,446.02Z" transform="translate(613.524 1523.775)" fill="#a0616a"/>
    <path id="Path_483-2" data-name="Path 483" d="M560.1,379.5l4.409.456s2.888,21.435,1.976,21.435-11.25,2.432-11.554,1.824S560.1,379.5,560.1,379.5Z" transform="translate(595.469 1569.012)" fill="#0652dd"/>
    <path id="Path_500" data-name="Path 500" d="M560.1,379.5l4.409.456s2.888,21.435,1.976,21.435-11.25,2.432-11.554,1.824S560.1,379.5,560.1,379.5Z" transform="translate(595.469 1569.012)" fill="#ecf0f1" opacity="0.04"/>
    <path id="Path_484" data-name="Path 484" d="M624.315,244.055l1.364-2.664s-1.362,1.863-2.411.937c-.494-.437.09-1.727-.536-2.041-.37-.185-.239,1.41-.737,1.1-.348-.215-.45-1.955-.908-2.144-.517-.213-.983,1.266-1.614,1.041-.472-.169.664-1.284,0-1.375-.634-.088-2.252.608-3.05.658l1.614-1.614a5.9,5.9,0,0,1-2.741.957c-.582-.008-.934-1.1-1.474-.957s.075,1.369-.335,1.291c-1.036-.2-.124-2.25-1.608-1.291-.479.308-.824,1.752-1.377,2.332-.441.463-.933-1.17-1.973-1.375-.529-.1-1.611,1.163-2.077,1.375-.21.094.218,1.441,0,1.706-.172.209-1.375-1.017-1.511-.6-.109.326.866,2.325.779,2.878a11.027,11.027,0,0,1-.647,2.949l-1.231,1.764.081,1.447a16.53,16.53,0,0,0,.3,4.568l.372.581a3.212,3.212,0,0,1-.372-3.272c.57-1.233,3.588-1.484,3.588-1.794v1.794s1.973-1.614,3.049-1.435a2.356,2.356,0,0,1,1.018-2.245c1.273-.923,7.427.731,9.207,1.169a6.788,6.788,0,0,0,3.856-.538l1.742,4.862a15.381,15.381,0,0,0-.67-4.5,4.611,4.611,0,0,1-.335-.99c-.256-.916.872-1.975.335-2.948-.291-.528.527-3.262,0-3.684C625.782,241.808,624.7,244.251,624.315,244.055Z" transform="translate(522.06 1667.697)" fill="#2f2e41"/>
    <path id="Path_486-2" data-name="Path 486" d="M670.931,433.5v12.466s-.3,15.2,4.865,24.627l2.736,6.081,3.616,9.464s5.889-1.768,4.975-4.109c-1.316-3.371-3.422-7.787-3.422-7.787L679.743,451.1l2.437-15.47Z" transform="translate(439.635 1531.432)" fill="#a0616a"/>
    <path id="Path_487-2" data-name="Path 487" d="M694.048,364.5l-5.929.76S680.974,387,682.8,387.911s13.682,1.52,13.682,1.52Z" transform="translate(426.856 1579.451)" fill="#0652dd"/>
    <path id="Path_501" data-name="Path 501" d="M694.048,364.5l-5.929.76S680.974,387,682.8,387.911s13.682,1.52,13.682,1.52Z" transform="translate(425.856 1580.451)" fill="#ecf0f1" opacity="0.06"/>
    <path id="Path_496" data-name="Path 496" d="M2800.084-19363.234s-1.346-.078-5.151,2.654-6.144,4.52-6.144,4.52" transform="translate(-1678.209 21468.064)" fill="none" stroke="#f77824" stroke-width="1"/>
    <path id="Path_497" data-name="Path 497" d="M2919.436-19363.234a26.458,26.458,0,0,0,3.332,1.855,17.771,17.771,0,0,1,4.586,2.783" transform="translate(-1767.275 21468.064)" fill="none" stroke="#f77824" stroke-width="1"/>
    <path id="Path_498" data-name="Path 498" d="M3177.474-19384.348l-3.242,7.451-3.073-1.861,4.268-7.945Z" transform="translate(-1936.656 21485.02)" fill="#ffc312"/>
    <path id="Path_499" data-name="Path 499" d="M3041.577-19371.875l-4.641-6.711-2.151,2.715,3.813,5.986Z" transform="translate(-1845.913 21478.531)" fill="#ffc312"/>
    <text id="NS" transform="translate(1212.081 1953.365)" fill="#ecf0f1" font-size="5" font-family="savatage"><tspan x="-4.333" y="0">NS</tspan></text>
    <text id="NS-2" data-name="NS" transform="translate(1138.244 1963.23)" fill="#ecf0f1" font-size="5" font-family="savatage"><tspan x="-4.333" y="0">NS</tspan></text>
    <path id="Path_507" data-name="Path 507" d="M374.426,256.088s.789,7.892-1.578,11.049,5.919,22.887,5.919,22.887l11.838-22.1s-3.946-2.368-1.578-9.076Z" transform="translate(1200.903 1658.664)" fill="#ffb9b9"/>
    <path id="Path_508" data-name="Path 508" d="M374.426,256.088s.789,7.892-1.578,11.049,5.919,22.887,5.919,22.887l11.838-22.1s-3.946-2.368-1.578-9.076Z" transform="translate(1200.903 1658.664)" opacity="0.1"/>
    <path id="Path_509" data-name="Path 509" d="M440.863,356.862l.395,16.179-15,24.071-2.762-9.076,8.287-16.179s-2.762-7.5-1.973-11.838S440.863,356.862,440.863,356.862Z" transform="translate(1169.981 1597.748)" fill="#ffb9b9"/>
    <path id="Path_510" data-name="Path 510" d="M310.895,350.862l-.395,16.179,15,24.071,2.762-9.076-8.287-16.179s2.762-7.5,1.973-11.838S310.895,350.862,310.895,350.862Z" transform="translate(1238.39 1601.381)" fill="#ffb9b9"/>
    <path id="Path_511" data-name="Path 511" d="M310.885,417.088l-1.578,3.946a19.826,19.826,0,0,0-6.314,15.39l-4.735,48.932s-3.157,3.551-1.973,7.892c0,0-2.762,14.6-1.184,19.336,0,0-6.708,12.233.395,13.022s9.471.789,10.26-1.973,1.973-13.022,1.973-13.022l17.363-61.559,2.762,38.277s-2.762,10.26-1.973,13.022-5.525,22.493-2.762,24.466,10.655,2.762,11.049,1.184.789-11.444.789-11.444,3.946-8.681,4.735-11.444,1.578-18.152,1.578-18.152l7.1-45.38s1.578-12.233-2.368-14.6l-1.578-7.1Z" transform="translate(1249.449 1561.197)" fill="#707070"/>
    <path id="Path_512" data-name="Path 512" d="M289.244,686.088l-1.578,7.892S279.379,707,287.271,707s8.681-3.946,8.681-3.946V699.5s3.946-1.973,3.946-2.368-1.184-9.865-1.184-9.865Z" transform="translate(1254.516 1398.348)" fill="#2f2e41"/>
    <path id="Path_513" data-name="Path 513" d="M379.155,686.088l1.578,7.892S389.02,707,381.128,707s-8.681-3.946-8.681-3.946V699.5s-3.946-1.973-3.946-2.368,1.184-9.865,1.184-9.865Z" transform="translate(1203.277 1398.348)" fill="#2f2e41"/>
    <circle id="Ellipse_239" data-name="Ellipse 239" cx="10.411" cy="10.411" r="10.411" transform="translate(1573.679 1902.473)" fill="#ffb9b9"/>
    <path id="Path_514" data-name="Path 514" d="M351.69,286.239c-1-2.092-3.193-2.561-3.038-3.491a11.34,11.34,0,0,0-.019-4.1l-3.533,2.127-14.6,6.708,5.919,19.731a27.485,27.485,0,0,0-1.578,7.5c0,3.157.789,6.708,0,7.892a4.981,4.981,0,0,0-.395,4.735,5.01,5.01,0,0,1,.395,3.157s-5.525,3.157-2.368,3.946a14.665,14.665,0,0,0,6.314,0s.395-1.184,3.552.395,19.731,1.973,19.731,1.973,10.654.395,10.26-1.184S374.3,315.5,374.3,315.5l5.525-26.044L367.2,281.564l-4.079-3.6-1.051,5.574-6.547,2.7S353.364,289.726,351.69,286.239Z" transform="translate(1226.282 1645.422)" fill="#ecf0f1"/>
    <path id="Path_515" data-name="Path 515" d="M316.75,303.088h-2.762s-14.009,16.771-10.063,19.533,17.56,4.933,17.56,4.933S320.3,303.088,316.75,303.088Z" transform="translate(1242.794 1630.213)" fill="#ecf0f1"/>
    <path id="Path_516" data-name="Path 516" d="M439.235,307.088h3.552s9.471,22.1,6.314,22.887-14.6,3.157-14.6,1.973S439.235,307.088,439.235,307.088Z" transform="translate(1163.322 1627.791)" fill="#ecf0f1"/>
    <path id="Path_517" data-name="Path 517" d="M372.3,226.3a4.988,4.988,0,0,1-.7-3.519,10.665,10.665,0,0,0,.3-3.172A31.394,31.394,0,0,1,373.735,215c.912-1.651.478-2.346,3.345-2.867s1.694-4.258,9.254-.217a2.217,2.217,0,0,0,2.3.869c1.564-.3,2.129,1.868,2.129,1.868s1.043-.608,1.434.261,3.179-.522,3.179,5.344a24.285,24.285,0,0,1-3.173,11.1s.233-9.866-4.937-10.865-10.731-3.91-12.078-.174A28.48,28.48,0,0,1,372.3,226.3Z" transform="translate(1201.457 1686.529)" fill="#2f2e41"/>
    <path id="Path_527" data-name="Path 527" d="M151.912,660.491c-1.315,11.519,5.767,21.786,5.767,21.786s9.213-8.408,10.527-19.927-5.767-21.786-5.767-21.786S153.227,648.973,151.912,660.491Z" transform="translate(1334.496 1425.908)" fill="#a3cb38"/>
    <path id="Path_528" data-name="Path 528" d="M138.194,665.305c4.738,10.581,1.1,22.51,1.1,22.51s-11.325-5.226-16.063-15.808-1.1-22.51-1.1-22.51S133.455,654.724,138.194,665.305Z" transform="translate(1353.236 1420.5)" fill="url(#linear-gradient)"/>
    <g id="Group_318" data-name="Group 318" transform="translate(1432.108 1893.307)">
      <path id="Path_529" data-name="Path 529" d="M720.3,442.528s10.733,12.516,8.477,13.334-12.788-8.126-12.111-11.288Z" transform="translate(-634.81 -343.039)" fill="#a0616a"/>
      <path id="Path_530" data-name="Path 530" d="M917.793,476.37s-5.827,15.424-3.428,15.424,9.255-12,7.541-14.739Z" transform="translate(-895.473 -365.282)" fill="#a0616a"/>
      <ellipse id="Ellipse_241" data-name="Ellipse 241" cx="12.682" cy="4.113" rx="12.682" ry="4.113" transform="translate(18.59 215.5) rotate(-125.356)" fill="#2f2e41"/>
      <ellipse id="Ellipse_242" data-name="Ellipse 242" cx="12.682" cy="4.113" rx="12.682" ry="4.113" transform="translate(64.077 220.313) rotate(-139.477)" fill="#2f2e41"/>
      <path id="Path_531" data-name="Path 531" d="M802.178,170c.962-1.361,2.146-2.55,3.161-3.871,2.341-3.046,3.151-7.106,6.292-9.442,3.108-2.312,8.041-4.587,11.93-4.4,5.126.24,9.193,4.217,12.726,7.938l8.1,8.531c1.954,2.057,3.979,4.241,4.683,6.989a11.444,11.444,0,0,1-1.223,7.908,19.247,19.247,0,0,1-5.293,6.319c-2.712-3.734-6.511-8.89-6.511-8.89l-.884,12.825a37.464,37.464,0,0,1-14.371,1.485l-1.434-5.258-1.505,4.967c-5.786-.767-11.6-2.765-15.18-7.28A15.293,15.293,0,0,1,802.178,170Z" transform="translate(-783.484 -152.27)" fill="#2f2e41"/>
      <circle id="Ellipse_243" data-name="Ellipse 243" cx="10.626" cy="10.626" r="10.626" transform="translate(30.203 7.917)" fill="#a0616a"/>
      <path id="Path_532" data-name="Path 532" d="M832.06,221.37s-.686,8.226,3.77,8.912,9.254,0,9.254,2.742-3.427,27.763-3.427,27.763l-8.569-.686-12-11.654-6.512-12.682s7.883-3.428,4.456-13.71Z" transform="translate(-784.376 -197.685)" fill="#a0616a"/>
      <path id="Path_533" data-name="Path 533" d="M822.885,266.5l3.428-9.254-.686-12.682s-7.526-1.028-7.362-7.2l5.648,2.4,13.025,2.057v12s4.456,7.2-.685,14.4l-2.4,15.081-24.679-1.714L801.291,271.3l-9.94-19.537,10.283-7.541-1.371-2.057,5.245-3.42-.789,6.505,2.4,4.113S818.086,251.423,822.885,266.5Z" transform="translate(-770.06 -208.201)" fill="#ecf0f1"/>
      <path id="Path_534" data-name="Path 534" d="M737.95,251.056l2.057-.686s4.113,1.714,4.113,7.2,16.453,59.64,16.453,59.64l-7.541,2.057-10.283-25.021-6.17-20.908Z" transform="translate(-673.128 -216.745)" fill="#ecf0f1"/>
      <path id="Path_535" data-name="Path 535" d="M905.72,279.247h-2.742s-1.714-1.371-1.371,8.569-1.028,62.382-1.028,62.382l9.94-.685,2.4-56.555Z" transform="translate(-881.687 -235.682)" fill="#ecf0f1"/>
      <path id="Path_536" data-name="Path 536" d="M835.514,355.1s23.232-4.271,28.374-.158A3,3,0,0,0,863.2,357c0,1.371-.686-.343,0,1.371s2.057.343.686,1.714-1.714,1.028-1.028,2.057,0,2.742,0,2.742,3.77,17.823.343,30.506-31.877,102.142-39.417,99.743-26.392-13.368-25.364-17.138,35.647-55.87,35.647-55.87-14.4-44.9,2.742-59.3c0,0-1.028-1.371-.686-2.4s.686,0,.343-1.028-2.057-1.028-1.028-2.057A1.708,1.708,0,0,0,835.514,355.1Z" transform="translate(-798.38 -284.299)" fill="url(#linear-gradient)"/>
      <path id="Path_537" data-name="Path 537" d="M798.818,466.37s23.308,104.2,18.509,105.912-23.308,2.057-24.679,0-10.968-75.75-10.968-75.75Z" transform="translate(-745.993 -358.709)" fill="url(#linear-gradient)"/>
      <path id="Path_538" data-name="Path 538" d="M864.786,169.411s-8.569,10.283-25.707,4.456l4.8-8.569,11.311-3.428Z" transform="translate(-812.475 -158.579)" fill="#2f2e41"/>
      <path id="Path_541" data-name="Path 541" d="M701.636,472.411q1.022-.063,2.052-.123l-.04-.685q-1.03.059-2.054.124Z" transform="translate(-604.252 -362.149)" fill="#3f3d56"/>
    </g>
    <path id="Path_555" data-name="Path 555" d="M5169.953-21823.15" transform="translate(-3591.683 23755.336)" fill="none" stroke="#707070" stroke-width="1"/>
    <path id="Polygon_3" data-name="Polygon 3" d="M2.762,0,5.525,4.735H0Z" transform="translate(1582.629 1936.584) rotate(180)" fill="#f77824"/>
    <path id="Polygon_4" data-name="Polygon 4" d="M1.184,0,2.368,1.973H0Z" transform="translate(1578.683 1934.217)" fill="#ff5a1a"/>
    <path id="Path_556" data-name="Path 556" d="M5164.8-21813l-4.836,37.242,2.919,5.838,4.014-5.838-.524-37.242Z" transform="translate(-3585.633 23749.189)" fill="url(#linear-gradient)"/>
    <path id="Path_586" data-name="Path 586" d="M439,175.6l7.279,4.549-.607,16.378,2.123-3.943,1.213,3.943V180.148h5.156l-.3-2.73-6.066.91-7.886-4.246Z" transform="translate(1055.146 1757.336)" fill="url(#linear-gradient)"/>
  </g>
</svg>
