<svg xmlns="http://www.w3.org/2000/svg" width="325" height="325" viewBox="0 0 325 325">
  <g id="custom-data" transform="translate(-772 -3158)">
    <g id="Ellipse_43" data-name="Ellipse 43" transform="translate(772 3158)" fill="none" stroke="#ff5a1a" stroke-width="15">
      <circle cx="162.5" cy="162.5" r="162.5" stroke="none"/>
      <circle cx="162.5" cy="162.5" r="155" fill="none"/>
    </g>
    <g id="Group_79" data-name="Group 79" transform="translate(-2321 18696)">
      <circle id="Ellipse_60" data-name="Ellipse 60" cx="100" cy="100" r="100" transform="translate(3156 -15475)" fill="#fff"/>
      <g id="shield-r1KFT3QdV" transform="translate(3174.636 -15464.818)">
        <g id="Group_76" data-name="Group 76" transform="translate(20.364 17.818)">
          <path id="Path_19" data-name="Path 19" d="M10.355,14.922c2.989,1.491,11.045,3.467,23.325,3.467S54.012,16.412,57,14.922c-2.988-1.491-11.045-3.467-23.324-3.467s-20.333,1.976-23.325,3.467Z" transform="translate(27.32 35.72)"/>
          <path id="Path_20" data-name="Path 20" d="M119.348,26.522c-23.2,0-34.479-7.808-34.479-23.87A2.651,2.651,0,0,0,82.218,0H39.783A2.653,2.653,0,0,0,37.13,2.652c0,16.062-11.277,23.87-34.478,23.87A2.653,2.653,0,0,0,0,29.174V76.913c0,27.5,57.138,64.334,59.571,65.888a2.662,2.662,0,0,0,2.859,0C64.862,141.247,122,104.416,122,76.913V29.174a2.651,2.651,0,0,0-2.652-2.652Zm-34.479,55.7c0,7.572-19.883,7.957-23.869,7.957s-23.87-.385-23.87-7.957v-5.3a2.652,2.652,0,0,1,5.3,0v4.859c1.374,1.14,7.877,3.1,18.565,3.1s17.191-1.957,18.565-3.1V76.913a2.652,2.652,0,0,1,5.3,0v5.3Zm0-15.913c0,7.572-19.883,7.957-23.869,7.957S37.13,73.876,37.13,66.3V61a2.652,2.652,0,1,1,5.3,0v4.861c1.374,1.138,7.877,3.1,18.565,3.1S78.192,67,79.565,65.859V61a2.652,2.652,0,1,1,5.3,0v5.3ZM61,58.348c-3.986,0-23.87-.385-23.87-7.957S57.014,42.435,61,42.435s23.869.385,23.869,7.957S64.986,58.348,61,58.348Z"/>
        </g>
      </g>
    </g>
  </g>
</svg>
