<svg xmlns="http://www.w3.org/2000/svg" width="325" height="325" viewBox="0 0 325 325">
  <g id="domain" transform="translate(-764 -1613)">
    <g id="Ellipse_37" data-name="Ellipse 37" transform="translate(764 1613)" fill="none" stroke="#ff5a1a" stroke-width="15">
      <circle cx="162.5" cy="162.5" r="162.5" stroke="none"/>
      <circle cx="162.5" cy="162.5" r="155" fill="none"/>
    </g>
    <g id="Group_73" data-name="Group 73" transform="translate(-2144 18225)">
      <ellipse id="Ellipse_54" data-name="Ellipse 54" cx="100" cy="100" rx="100" ry="100" transform="translate(2971 -16549)" fill="#fff"/>
      <g id="sync-Hyiqn2Xu4" transform="translate(3010 -16491)">
        <g id="Group_72" data-name="Group 72" transform="translate(0 0)">
          <path id="Path_12" data-name="Path 12" d="M107.036,49.059a40.714,40.714,0,0,0,.7-7.434,41.627,41.627,0,0,0-83.19-2.3,22.033,22.033,0,1,0-2.51,43.922h83.251a17.141,17.141,0,0,0,1.748-34.192ZM62.945,38.46a2.447,2.447,0,0,1-3.462,0l-5.615-5.615V56.317a2.449,2.449,0,0,1-4.9,0V32.845L43.357,38.46A2.448,2.448,0,0,1,39.895,35L49.689,25.2a2.446,2.446,0,0,1,3.462,0L62.945,35a2.446,2.446,0,0,1,0,3.462ZM92.328,53.151l-9.794,9.794a2.447,2.447,0,0,1-3.462,0l-9.794-9.794a2.448,2.448,0,1,1,3.463-3.462L78.354,55.3V31.831a2.449,2.449,0,0,1,4.9,0V55.3l5.614-5.615a2.448,2.448,0,1,1,3.463,3.462Z" fill-rule="evenodd"/>
        </g>
      </g>
    </g>
  </g>
</svg>
