<svg xmlns="http://www.w3.org/2000/svg" width="27.893" height="27.893" viewBox="0 0 27.893 27.893">
  <g id="facebook" transform="translate(-21 -21)" opacity="0.2">
    <g id="Group_27" data-name="Group 27">
      <path id="Path_8" data-name="Path 8" d="M27.893,4.655A4.821,4.821,0,0,0,23.241,0H4.648A4.821,4.821,0,0,0,0,4.655V23.241a4.818,4.818,0,0,0,4.648,4.652h9.3V17.355H10.54V12.709h3.406V10.9c0-3.121,2.345-5.935,5.23-5.935h3.759V9.613H19.176a1.137,1.137,0,0,0-.894,1.245V12.71h4.653v4.646H18.283V27.893h4.958a4.818,4.818,0,0,0,4.652-4.652V4.655Z" transform="translate(21 21)" fill="#fff" fill-rule="evenodd"/>
    </g>
  </g>
</svg>
