<svg xmlns="http://www.w3.org/2000/svg" xmlns:xlink="http://www.w3.org/1999/xlink" width="121.079" height="132.342" viewBox="0 0 121.079 132.342">
  <defs>
    <linearGradient id="linear-gradient" x1="0.5" x2="0.5" y2="1" gradientUnits="objectBoundingBox">
      <stop offset="0" stop-color="#fe9b24"/>
      <stop offset="0.46" stop-color="#f77824"/>
      <stop offset="1" stop-color="#ff5a1a"/>
    </linearGradient>
  </defs>
  <g id="graph" transform="translate(-3372 19465)">
    <rect id="Rectangle_140" data-name="Rectangle 140" width="107.469" height="120.314" transform="translate(3372.235 -19453.205)" fill="#f2f2f2"/>
    <path id="Path_488" data-name="Path 488" d="M857.711,597.283h-2.816v-.469h2.816Zm-5.632,0h-2.816v-.469h2.816Zm-5.632,0h-2.816v-.469h2.816Zm-5.632,0H838v-.469h2.816Z" transform="translate(2534.235 -19959.785)" fill="#e6e6e6"/>
    <path id="Path_489" data-name="Path 489" d="M897.131,502.469h-2.816V502h2.816Zm-5.632,0h-2.816V502H891.5Zm-5.631,0h-2.816V502h2.816Zm-5.632,0h-2.816V502h2.816Zm-5.632,0h-2.816V502h2.816Zm-5.632,0h-2.816V502h2.816Zm-5.632,0h-2.816V502h2.816Zm-5.632,0h-2.816V502h2.816Zm-5.632,0h-2.816V502h2.816Zm-5.632,0h-2.816V502h2.816Zm-5.632,0H838V502h2.816Z" transform="translate(2534.235 -19887.221)" fill="#e6e6e6"/>
    <path id="Path_490" data-name="Path 490" d="M953.447,443.469h-2.816V443h2.816Zm-5.631,0H945V443h2.816Zm-5.632,0h-2.816V443h2.816Zm-5.632,0h-2.816V443h2.816Zm-5.632,0h-2.816V443h2.816Zm-5.632,0h-2.816V443h2.816Zm-5.632,0h-2.816V443h2.816Zm-5.632,0H911.21V443h2.816Zm-5.632,0h-2.816V443h2.816Zm-5.632,0h-2.816V443h2.816Zm-5.632,0h-2.816V443h2.816Zm-5.632,0h-2.816V443H891.5Zm-5.631,0h-2.816V443h2.816Zm-5.632,0h-2.816V443h2.816Zm-5.632,0h-2.816V443h2.816Zm-5.632,0h-2.816V443h2.816Zm-5.632,0h-2.816V443h2.816Zm-5.632,0h-2.816V443h2.816Zm-5.632,0h-2.816V443h2.816Zm-5.632,0h-2.816V443h2.816Zm-5.632,0H838V443h2.816Z" transform="translate(2534.235 -19842.063)" fill="#e6e6e6"/>
    <path id="Path_491" data-name="Path 491" d="M927.469,283.029H927V280.26h.469Zm0-5.538H927v-2.769h.469Zm0-5.538H927v-2.769h.469Zm0-5.538H927v-2.769h.469Zm0-5.538H927v-2.769h.469Zm0-5.538H927V252.57h.469Zm0-5.538H927v-2.769h.469Zm0-5.538H927v-2.769h.469Zm0-5.538H927v-2.769h.469Zm0-5.538H927v-2.769h.469Zm0-5.538H927V224.88h.469Zm0-5.538H927v-2.769h.469Zm0-5.538H927V213.8h.469Zm0-5.538H927v-2.769h.469Zm0-5.538H927v-2.769h.469Zm0-5.538H927V197.19h.469Zm0-5.538H927v-2.769h.469Zm0-5.538H927v-2.769h.469Zm0-5.538H927v-2.769h.469Z" transform="translate(2466.118 -19641.217)" fill="#e6e6e6"/>
    <rect id="Rectangle_142" data-name="Rectangle 142" width="0.469" height="1.408" transform="translate(3393.118 -19355.418)" fill="#e6e6e6"/>
    <path id="Path_492" data-name="Path 492" d="M1101.469,261.735H1101V258.94h.469Zm0-5.59H1101V253.35h.469Zm0-5.59H1101v-2.795h.469Zm0-5.589H1101v-2.795h.469Zm0-5.59H1101v-2.795h.469Zm0-5.59H1101v-2.795h.469Zm0-5.59H1101V225.4h.469Zm0-5.59H1101v-2.795h.469Zm0-5.589H1101v-2.795h.469Zm0-5.59H1101v-2.795h.469Zm0-5.59H1101v-2.795h.469Zm0-5.59H1101v-2.795h.469Zm0-5.59H1101v-2.795h.469Zm0-5.589H1101v-2.795h.469Zm0-5.59H1101v-2.795h.469Z" transform="translate(2332.947 -19641.301)" fill="#e6e6e6"/>
    <rect id="Rectangle_144" data-name="Rectangle 144" width="0.469" height="1.408" transform="translate(3433.947 -19376.773)" fill="#e6e6e6"/>
    <path id="Path_493" data-name="Path 493" d="M591,372.427l21.353-21.353,9.738,9.738,30.856-30.856L672.892,349.9l35.9-35.9v58.427Z" transform="translate(2781.235 -19705.32)" fill="#ff5a1a"/>
    <path id="Path_494" data-name="Path 494" d="M955.263,294.342H837V162H955.263Zm-117.794-.469H954.794v-131.4H837.469Z" transform="translate(2535 -19627)" fill="#3f3d56"/>
    <circle id="Ellipse_234" data-name="Ellipse 234" cx="3.05" cy="3.05" r="3.05" transform="translate(3390.302 -19366.213)" fill="url(#linear-gradient)"/>
    <circle id="Ellipse_235" data-name="Ellipse 235" cx="3.05" cy="3.05" r="3.05" transform="translate(3431.131 -19388.035)" fill="url(#linear-gradient)"/>
    <circle id="Ellipse_236" data-name="Ellipse 236" cx="3.05" cy="3.05" r="3.05" transform="translate(3486.978 -19401.879)" fill="url(#linear-gradient)"/>
    <path id="Path_495" data-name="Path 495" d="M968.426,242a14.17,14.17,0,0,1-4.552.594l1.769,1.175L882.405,305.4l.279.377,83.238-61.633.608,2.035A14.214,14.214,0,0,1,968.426,242Z" transform="translate(2500.249 -19688.229)" fill="#a3cb38"/>
  </g>
</svg>
