<svg xmlns="http://www.w3.org/2000/svg" width="27.891" height="27.884" viewBox="0 0 27.891 27.884">
  <path id="instagram" d="M13.873,38.618a7.149,7.149,0,1,0,7.149,7.149A7.138,7.138,0,0,0,13.873,38.618Zm0,11.8a4.648,4.648,0,1,1,4.648-4.648,4.656,4.656,0,0,1-4.648,4.648Zm9.109-12.089a1.667,1.667,0,1,1-1.667-1.667A1.664,1.664,0,0,1,22.982,38.325Zm4.735,1.692a8.252,8.252,0,0,0-2.252-5.842,8.306,8.306,0,0,0-5.842-2.252c-2.3-.131-9.2-.131-11.5,0a8.294,8.294,0,0,0-5.842,2.246A8.279,8.279,0,0,0,.023,40.012c-.131,2.3-.131,9.2,0,11.5a8.252,8.252,0,0,0,2.252,5.842,8.317,8.317,0,0,0,5.842,2.252c2.3.131,9.2.131,11.5,0a8.252,8.252,0,0,0,5.842-2.252,8.306,8.306,0,0,0,2.252-5.842c.131-2.3.131-9.2,0-11.5ZM24.743,53.986a4.706,4.706,0,0,1-2.651,2.651c-1.835.728-6.191.56-8.219.56s-6.39.162-8.219-.56A4.706,4.706,0,0,1,3,53.986c-.728-1.835-.56-6.191-.56-8.219s-.162-6.39.56-8.219A4.706,4.706,0,0,1,5.654,34.9c1.835-.728,6.191-.56,8.219-.56s6.39-.162,8.219.56a4.706,4.706,0,0,1,2.651,2.651c.728,1.835.56,6.191.56,8.219S25.471,52.157,24.743,53.986Z" transform="translate(0.075 -31.825)" fill="#fff" opacity="0.2"/>
</svg>
