<svg xmlns="http://www.w3.org/2000/svg" width="135.416" height="75.351" viewBox="0 0 135.416 75.351">
  <path id="logo" d="M-6235.56-11517.451l-2.727-7.549s-8.538-.105-12.732.941-9.289,6.607-9.289,6.607,19.295,11.328,23.7,17.828,3.565,4.611,3.565,4.611l-7.97,12.584s-2.074.742-17.8,3.887-48.47,16.037-48.47,16.037l7.5-6.254h-12.261s-4.115-7.771-7.694-16.725c-1.432-3.578-4.395-12.006-5.089-14.141a61.371,61.371,0,0,1-2.578-12.547,2.848,2.848,0,0,0-2.273.266c-1.187.678-5.121,5.705-6.076,8.092s-4.026,19.039-4.026,19.039l-2.655,17.045s-8.27-2.727-12.846-2.555-5.083,3.221-5.083,3.221a48.072,48.072,0,0,1,1.016-11.748c1.385-7.119,4.663-17.115,6.315-20.422,3.056-6.107,10.886-20.809,12.507-23.1s8.018-11.264,8.018-11.264l16.514-.479s.286,11.166.668,13.268,7.16,22.816,7.16,22.816a90.9,90.9,0,0,1,.889-14.18,100.118,100.118,0,0,1,3.121-12.83c.667-2.393,2.769-8.6,2.769-8.6h18.9a31.168,31.168,0,0,0-2.387,2.1c-1.05,1.051-6.683,15.273-6.683,15.273l-2.863,15.465-3.055,30.236s28.761-22.2,30.479-23.154,7.35-4.273,7.35-4.273-7.4-8.844-10.451-11.611-14.777-11.842-14.777-11.842,6.481-3.963,14.095-7.57a144.9,144.9,0,0,1,14.687-5.76c3.178-1.068,12.43-2.562,19.939-3.051a39.1,39.1,0,0,1,7.679.3l3.483,14.629Z" transform="translate(6360.416 11537.854)" fill="#9e9c9b"/>
</svg>
