<svg xmlns="http://www.w3.org/2000/svg" xmlns:xlink="http://www.w3.org/1999/xlink" width="827.104" height="640.613" viewBox="0 0 827.104 640.613">
  <defs>
    <filter id="Path_4" x="0" y="0" width="827.104" height="640.613" filterUnits="userSpaceOnUse">
      <feOffset dx="3" dy="3" input="SourceAlpha"/>
      <feGaussianBlur stdDeviation="3" result="blur"/>
      <feFlood flood-opacity="0.161"/>
      <feComposite operator="in" in2="blur"/>
      <feComposite in="SourceGraphic"/>
    </filter>
    <filter id="Ellipse_2" x="650.118" y="364.475" width="38.027" height="38.027" filterUnits="userSpaceOnUse">
      <feOffset dx="3" dy="3" input="SourceAlpha"/>
      <feGaussianBlur stdDeviation="3" result="blur-2"/>
      <feFlood flood-color="#0af98a" flood-opacity="0.161"/>
      <feComposite operator="in" in2="blur-2"/>
      <feComposite in="SourceGraphic"/>
    </filter>
    <filter id="Ellipse_12" x="554.47" y="187.998" width="38.027" height="38.027" filterUnits="userSpaceOnUse">
      <feOffset dx="3" dy="3" input="SourceAlpha"/>
      <feGaussianBlur stdDeviation="3" result="blur-3"/>
      <feFlood flood-color="#0af98a" flood-opacity="0.161"/>
      <feComposite operator="in" in2="blur-3"/>
      <feComposite in="SourceGraphic"/>
    </filter>
    <filter id="Ellipse_13" x="417.061" y="202.816" width="38.027" height="38.027" filterUnits="userSpaceOnUse">
      <feOffset dx="3" dy="3" input="SourceAlpha"/>
      <feGaussianBlur stdDeviation="3" result="blur-4"/>
      <feFlood flood-color="#0af98a" flood-opacity="0.161"/>
      <feComposite operator="in" in2="blur-4"/>
      <feComposite in="SourceGraphic"/>
    </filter>
    <filter id="Ellipse_14" x="495.195" y="299.813" width="38.027" height="38.027" filterUnits="userSpaceOnUse">
      <feOffset dx="3" dy="3" input="SourceAlpha"/>
      <feGaussianBlur stdDeviation="3" result="blur-5"/>
      <feFlood flood-color="#0af98a" flood-opacity="0.161"/>
      <feComposite operator="in" in2="blur-5"/>
      <feComposite in="SourceGraphic"/>
    </filter>
    <filter id="Ellipse_15" x="245.972" y="355.045" width="38.027" height="38.027" filterUnits="userSpaceOnUse">
      <feOffset dx="3" dy="3" input="SourceAlpha"/>
      <feGaussianBlur stdDeviation="3" result="blur-6"/>
      <feFlood flood-color="#0af98a" flood-opacity="0.161"/>
      <feComposite operator="in" in2="blur-6"/>
      <feComposite in="SourceGraphic"/>
    </filter>
    <filter id="Ellipse_16" x="159.754" y="549.035" width="38.027" height="38.027" filterUnits="userSpaceOnUse">
      <feOffset dx="3" dy="3" input="SourceAlpha"/>
      <feGaussianBlur stdDeviation="3" result="blur-7"/>
      <feFlood flood-color="#0af98a" flood-opacity="0.161"/>
      <feComposite operator="in" in2="blur-7"/>
      <feComposite in="SourceGraphic"/>
    </filter>
    <filter id="Ellipse_17" x="469.6" y="495.148" width="38.027" height="38.027" filterUnits="userSpaceOnUse">
      <feOffset dx="3" dy="3" input="SourceAlpha"/>
      <feGaussianBlur stdDeviation="3" result="blur-8"/>
      <feFlood flood-color="#0af98a" flood-opacity="0.161"/>
      <feComposite operator="in" in2="blur-8"/>
      <feComposite in="SourceGraphic"/>
    </filter>
    <filter id="Ellipse_10" x="640.688" y="178.568" width="38.027" height="38.027" filterUnits="userSpaceOnUse">
      <feOffset dx="3" dy="3" input="SourceAlpha"/>
      <feGaussianBlur stdDeviation="3" result="blur-9"/>
      <feFlood flood-color="#0af98a" flood-opacity="0.161"/>
      <feComposite operator="in" in2="blur-9"/>
      <feComposite in="SourceGraphic"/>
    </filter>
    <filter id="Ellipse_11" x="611.051" y="78.879" width="38.027" height="38.027" filterUnits="userSpaceOnUse">
      <feOffset dx="3" dy="3" input="SourceAlpha"/>
      <feGaussianBlur stdDeviation="3" result="blur-10"/>
      <feFlood flood-color="#0af98a" flood-opacity="0.161"/>
      <feComposite operator="in" in2="blur-10"/>
      <feComposite in="SourceGraphic"/>
    </filter>
  </defs>
  <g id="map" transform="translate(-952.074 -1362.998)">
    <g id="Group_3" data-name="Group 3" transform="translate(960.219 1370.498)" opacity="0.07">
      <g transform="matrix(1, 0, 0, 1, -8.15, -7.5)" filter="url(#Path_4)">
        <path id="Path_4-2" data-name="Path 4" d="M75.219,79.552l10.388-3.666h4.277V62.443l16.5-7.332,4.888,7.332,5.5,13.443,14.054,12.832,17.109,2.444,11.61,6.11,20.775-3.666h10.388l10.388,3.666h7.943l3.055-8.555,9.777-2.444V79.552l26.886-6.721V-103.148l14.665,9.166L280.528-62.82l5.5,14.665v15.887l-8.555,7.332-3.055,5.5,3.055,14.054L280.528-1.1l11.61-4.277L304.97-1.1l9.777-4.277L325.134-1.1l11.61-6.721v-6.721h12.832l4.888-10.388,23.219-15.887,10.388-29.941,14.665-9.166,19.553,6.721,16.5,10.388H450.4l9.166,6.721h9.777l6.11,3.055h11l7.944-6.11,5.5,3.055,22-6.721,13.443-36.662v-3.666l26.214-9.41,22.631-15.792v-29.534l32.219-16.109,18.794-17.452,14.767-20.137,29.534-6.712,8.055-13.424H730.5l18.794,8.055h44.3l16.109,37.589v17.452l10.74,20.137,3.294,3.788,3.666,16.349,4.888,3.2v48.272l-4.888,9.166v20.164l-25.664-11.61-8.146,6.11-7.741,5.5L772.414-21.269V-2.938l4.277-4.888L782.8.728V3.783l10.8,11.61,11.812,3.666H832.3V-7.826l4.277,4.888h43.384L865.9,31.891l-4.277,26.275-8.555,15.887L832.3,93l-11.849,3.666-24.2,25.053L782.8,141.267l-6.11,12.221-28.719,43.995-21.386,21.386L705.81,231.09,679.536,259.2l-18.942,15.887-17.72,10.388-3.666,6.721L592.768,320.3l-11.61,5.5-19.614,6.721-18.27-3.055H531.053l-9.165,5.5-12.832,8.555H490.725l-4.277,3.666H444.9l-22.608-3.666h-9.777l-5.5,3.666H388.071l-13.443-3.666h-4.888l-15.276,3.666-7.333,6.11-6.11,6.11H316.532l-7.05,5.076-10.341-5.076-10.811,2.256v2.82H270.939l-8.461,8.931-13.725,7.521v5.64l-8.367-5.64H228.167l-11.281-7.521V367.3l-4.794-5.64-5.076,2.82-8.461-5.076-7.849,2.256V349.913l-3.431-2.726H176.463l-6.11,6.11,2.35,6.11-8.931-12.221,6.58-12.221V325.8l-10.811-13.96-6.11-6.58v-4.7l-2.82-5.64-2.679-2.726-3.9,2.726,3.9-13.631,5.5,4.183,6.11-4.183,6.58-6.2-2.35-34.688L113.95,163.781l-4.7-15.981-7.991-26.322-7.05-10.341v-7.991l-6.58-5.875-7.52-8.555Z" transform="translate(-67.07 239.22)" fill="#fff" stroke="#ecf0f1" stroke-width="3"/>
      </g>
      <path id="Path_5" data-name="Path 5" d="M841.29,181.936l7.149,7.807,9.532,5.56,6.355,6.355,5.561,4.766,7.943,7.149,4.766,8.738-4.766,8.738-7.943,6.355-5.561,6.355v6.355l-11.121,7.943-11.915,3.177-5.02-.9-2.139.9-6.418,1.454-.856,2.781-4.493,1.07-1.07,2.139,2.353,1.712-1.284,4.065-3.423,1.07-1.07,1.712,1.07,1.926-1.07,2.567-2.14,1.07.856,3.851h-2.995l-1.284-1.284h-6.632l-1.5-1.5h-7.7l-5.135-5.776-5.349-3.637-2.567-4.065L780,268.678l-1.712-1.07v-4.921H780v-2.353h-4.493v-3.851l-2.567-1.925L770.8,251.99,765.028,239.8l-3.851-2.393v-2.956l3.851-1.5,4.279-1.9H773.8l2.567-2.805,1.925-3.423L780,222.31l5.99-5.62v-3.117l5.349-5.226,2.139-3.637,4.493-5.135h2.781l3.423-1.284,4.065-1.5h3l6.632-7.051h8.985l2.567-4.287h8.986Z" transform="translate(-248.523 127.211)" fill="#fff" stroke="#ecf0f1" stroke-width="3"/>
    </g>
    <g transform="matrix(1, 0, 0, 1, 952.07, 1363)" filter="url(#Ellipse_2)">
      <g id="Ellipse_2-2" data-name="Ellipse 2" transform="translate(656.12 370.48)" fill="#fff" stroke="#f77824" stroke-width="5">
        <circle cx="10.014" cy="10.014" r="10.014" stroke="none"/>
        <circle cx="10.014" cy="10.014" r="7.514" fill="none"/>
      </g>
    </g>
    <g transform="matrix(1, 0, 0, 1, 952.07, 1363)" filter="url(#Ellipse_12)">
      <g id="Ellipse_12-2" data-name="Ellipse 12" transform="translate(560.47 194)" fill="#fff" stroke="#f77824" stroke-width="5">
        <circle cx="10.014" cy="10.014" r="10.014" stroke="none"/>
        <circle cx="10.014" cy="10.014" r="7.514" fill="none"/>
      </g>
    </g>
    <g transform="matrix(1, 0, 0, 1, 952.07, 1363)" filter="url(#Ellipse_13)">
      <g id="Ellipse_13-2" data-name="Ellipse 13" transform="translate(423.06 208.82)" fill="#fff" stroke="#f77824" stroke-width="5">
        <circle cx="10.014" cy="10.014" r="10.014" stroke="none"/>
        <circle cx="10.014" cy="10.014" r="7.514" fill="none"/>
      </g>
    </g>
    <g transform="matrix(1, 0, 0, 1, 952.07, 1363)" filter="url(#Ellipse_14)">
      <g id="Ellipse_14-2" data-name="Ellipse 14" transform="translate(501.2 305.81)" fill="#fff" stroke="#f77824" stroke-width="5">
        <circle cx="10.014" cy="10.014" r="10.014" stroke="none"/>
        <circle cx="10.014" cy="10.014" r="7.514" fill="none"/>
      </g>
    </g>
    <g transform="matrix(1, 0, 0, 1, 952.07, 1363)" filter="url(#Ellipse_15)">
      <g id="Ellipse_15-2" data-name="Ellipse 15" transform="translate(251.97 361.05)" fill="#fff" stroke="#f77824" stroke-width="5">
        <circle cx="10.014" cy="10.014" r="10.014" stroke="none"/>
        <circle cx="10.014" cy="10.014" r="7.514" fill="none"/>
      </g>
    </g>
    <g transform="matrix(1, 0, 0, 1, 952.07, 1363)" filter="url(#Ellipse_16)">
      <g id="Ellipse_16-2" data-name="Ellipse 16" transform="translate(165.75 555.04)" fill="#fff" stroke="#f77824" stroke-width="5">
        <circle cx="10.014" cy="10.014" r="10.014" stroke="none"/>
        <circle cx="10.014" cy="10.014" r="7.514" fill="none"/>
      </g>
    </g>
    <g transform="matrix(1, 0, 0, 1, 952.07, 1363)" filter="url(#Ellipse_17)">
      <g id="Ellipse_17-2" data-name="Ellipse 17" transform="translate(475.6 501.15)" fill="#fff" stroke="#f77824" stroke-width="5">
        <circle cx="10.014" cy="10.014" r="10.014" stroke="none"/>
        <circle cx="10.014" cy="10.014" r="7.514" fill="none"/>
      </g>
    </g>
    <g transform="matrix(1, 0, 0, 1, 952.07, 1363)" filter="url(#Ellipse_10)">
      <g id="Ellipse_10-2" data-name="Ellipse 10" transform="translate(646.69 184.57)" fill="#fff" stroke="#f77824" stroke-width="5">
        <circle cx="10.014" cy="10.014" r="10.014" stroke="none"/>
        <circle cx="10.014" cy="10.014" r="7.514" fill="none"/>
      </g>
    </g>
    <g transform="matrix(1, 0, 0, 1, 952.07, 1363)" filter="url(#Ellipse_11)">
      <g id="Ellipse_11-2" data-name="Ellipse 11" transform="translate(617.05 84.88)" fill="#fff" stroke="#f77824" stroke-width="5">
        <circle cx="10.014" cy="10.014" r="10.014" stroke="none"/>
        <circle cx="10.014" cy="10.014" r="7.514" fill="none"/>
      </g>
    </g>
  </g>
</svg>
