<svg xmlns="http://www.w3.org/2000/svg" width="325" height="325" viewBox="0 0 325 325">
  <g id="mobile" transform="translate(-764 -2643)">
    <g id="Ellipse_41" data-name="Ellipse 41" transform="translate(764 2643)" fill="none" stroke="#ff5a1a" stroke-width="15">
      <circle cx="162.5" cy="162.5" r="162.5" stroke="none"/>
      <circle cx="162.5" cy="162.5" r="155" fill="none"/>
    </g>
    <g id="Group_80" data-name="Group 80" transform="translate(-2329 18466)">
      <circle id="Ellipse_59" data-name="Ellipse 59" cx="100" cy="100" r="100" transform="translate(3156 -15760)" fill="#fff"/>
      <g id="computer-Hyw462QOV" transform="translate(3194.818 -15736.818)">
        <g id="Group_75" data-name="Group 75" transform="translate(24.182 17.818)">
          <path id="Path_17" data-name="Path 17" d="M71.572,0H2.169A2.17,2.17,0,0,0,0,2.169v112.78a2.168,2.168,0,0,0,2.169,2.169h69.4a2.167,2.167,0,0,0,2.169-2.169V2.169A2.168,2.168,0,0,0,71.572,0ZM36.87,110.611a4.338,4.338,0,1,1,4.338-4.338,4.339,4.339,0,0,1-4.338,4.338ZM65.065,97.6A2.167,2.167,0,0,1,62.9,99.767H10.844A2.168,2.168,0,0,1,8.675,97.6V10.844a2.17,2.17,0,0,1,2.169-2.169H62.9a2.168,2.168,0,0,1,2.169,2.169V97.6Z"/>
          <path id="Path_18" data-name="Path 18" d="M3.818,86.234H51.533V3.818H3.818V86.234Zm28.831-48.35a2.168,2.168,0,0,1,3.067-3.067l4.338,4.338a2.166,2.166,0,0,1,0,3.067L35.715,46.56a2.168,2.168,0,1,1-3.067-3.067l2.8-2.8-2.8-2.8ZM23.4,48.837l4.338-17.351a2.168,2.168,0,1,1,4.207,1.052L27.61,49.889a2.169,2.169,0,0,1-2.1,1.644,2.111,2.111,0,0,1-.529-.065A2.17,2.17,0,0,1,23.4,48.837ZM15.3,39.155l4.338-4.338A2.168,2.168,0,0,1,22.7,37.884l-2.8,2.8,2.8,2.8a2.168,2.168,0,1,1-3.067,3.067L15.3,42.222a2.166,2.166,0,0,1,0-3.067Z" transform="translate(9.195 9.195)"/>
        </g>
      </g>
    </g>
  </g>
</svg>
