<svg xmlns="http://www.w3.org/2000/svg" xmlns:xlink="http://www.w3.org/1999/xlink" width="350.969" height="221.42" viewBox="0 0 350.969 221.42">
  <defs>
    <linearGradient id="linear-gradient" x1="0.5" x2="0.5" y2="1" gradientUnits="objectBoundingBox">
      <stop offset="0" stop-color="#fe9b24"/>
      <stop offset="0.46" stop-color="#f77824"/>
      <stop offset="1" stop-color="#ff5a1a"/>
    </linearGradient>
  </defs>
  <g id="photo-2" transform="translate(-4870.515 21995)">
    <ellipse id="Ellipse_237" data-name="Ellipse 237" cx="84.688" cy="11.016" rx="84.688" ry="11.016" transform="translate(4873.78 -21795.613)" fill="url(#linear-gradient)"/>
    <path id="Path_506" data-name="Path 506" d="M780.641,416.946H708.065l-38.152,61.745a72.584,72.584,0,0,0,110.728-61.745Z" transform="translate(4401.787 -22312.615)" fill="#f2f2f2"/>
    <path id="Path_507" data-name="Path 507" d="M374.17,256.088s.688,6.885-1.377,9.639,5.164,19.967,5.164,19.967l10.328-19.279s-3.443-2.066-1.377-7.918Z" transform="translate(4596.864 -22207.133)" fill="#ffb9b9"/>
    <path id="Path_508" data-name="Path 508" d="M374.17,256.088s.688,6.885-1.377,9.639,5.164,19.967,5.164,19.967l10.328-19.279s-3.443-2.066-1.377-7.918Z" transform="translate(4596.864 -22207.133)" opacity="0.1"/>
    <path id="Path_509" data-name="Path 509" d="M438.648,356.843l.344,14.115-13.082,21-2.41-7.918,7.23-14.115s-2.41-6.541-1.721-10.328S438.648,356.843,438.648,356.843Z" transform="translate(4563.37 -22273.119)" fill="#ffb9b9"/>
    <path id="Path_510" data-name="Path 510" d="M310.844,350.843l-.344,14.115,13.082,21,2.41-7.918-7.229-14.115s2.41-6.541,1.721-10.328S310.844,350.843,310.844,350.843Z" transform="translate(4637.468 -22269.184)" fill="#ffb9b9"/>
    <path id="Path_511" data-name="Path 511" d="M308.5,417.088l-1.377,3.443a17.3,17.3,0,0,0-5.508,13.426l-4.131,42.688s-2.754,3.1-1.721,6.885c0,0-2.41,12.738-1.033,16.869,0,0-5.852,10.672.344,11.361s8.262.689,8.951-1.721,1.721-11.361,1.721-11.361l15.148-53.7,2.41,33.393s-2.41,8.951-1.721,11.361-4.82,19.623-2.41,21.344,9.3,2.41,9.639,1.033.689-9.984.689-9.984,3.443-7.574,4.131-9.984,1.377-15.836,1.377-15.836l6.2-39.59s1.377-10.672-2.066-12.738l-1.377-6.2Z" transform="translate(4649.447 -22312.707)" fill="#707070"/>
    <path id="Path_512" data-name="Path 512" d="M288.558,686.088l-1.377,6.885s-7.229,11.361-.344,11.361,7.574-3.443,7.574-3.443v-3.1s3.443-1.721,3.443-2.066-1.033-8.607-1.033-8.607Z" transform="translate(4654.935 -22489.1)" fill="#2f2e41"/>
    <path id="Path_513" data-name="Path 513" d="M377.8,686.088l1.377,6.885s7.229,11.361.344,11.361-7.574-3.443-7.574-3.443v-3.1s-3.443-1.721-3.443-2.066,1.033-8.607,1.033-8.607Z" transform="translate(4599.436 -22489.1)" fill="#2f2e41"/>
    <circle id="Ellipse_239" data-name="Ellipse 239" cx="9.083" cy="9.083" r="9.083" transform="translate(4969.595 -21961.762)" fill="#ffb9b9"/>
    <path id="Path_514" data-name="Path 514" d="M348.986,285.183c-.876-1.825-2.785-2.234-2.65-3.046a9.893,9.893,0,0,0-.017-3.577l-3.082,1.855L330.5,286.268l5.164,17.213a23.977,23.977,0,0,0-1.377,6.541c0,2.754.689,5.852,0,6.885a4.346,4.346,0,0,0-.344,4.131,4.37,4.37,0,0,1,.344,2.754s-4.82,2.754-2.066,3.443a12.794,12.794,0,0,0,5.508,0s.344-1.033,3.1.344,17.213,1.721,17.213,1.721,9.3.344,8.951-1.033,1.721-17.557,1.721-17.557l4.82-22.721L362.516,281.1l-3.558-3.141-.917,4.863-5.712,2.357S350.447,288.225,348.986,285.183Z" transform="translate(4624.354 -22221.479)" fill="#ecf0f1"/>
    <path id="Path_515" data-name="Path 515" d="M315.024,303.088h-2.41s-12.221,14.631-8.779,17.041,15.32,4.3,15.32,4.3S318.123,303.088,315.024,303.088Z" transform="translate(4642.239 -22237.953)" fill="#ecf0f1"/>
    <path id="Path_516" data-name="Path 516" d="M438.631,307.088h3.1s8.262,19.279,5.508,19.967-12.738,2.754-12.738,1.721S438.631,307.088,438.631,307.088Z" transform="translate(4556.157 -22240.576)" fill="#ecf0f1"/>
    <path id="Path_517" data-name="Path 517" d="M372.2,224.226a4.351,4.351,0,0,1-.606-3.07,9.3,9.3,0,0,0,.265-2.767,27.387,27.387,0,0,1,1.592-4.018c.8-1.44.417-2.047,2.918-2.5s1.478-3.714,8.073-.19a1.934,1.934,0,0,0,2.009.758c1.364-.265,1.857,1.63,1.857,1.63s.91-.531,1.251.227,2.773-.455,2.773,4.662a21.186,21.186,0,0,1-2.768,9.687s.2-8.607-4.307-9.479-9.362-3.411-10.537-.152a24.848,24.848,0,0,1-2.52,5.212Z" transform="translate(4597.464 -22176.951)" fill="#2f2e41"/>
    <path id="Path_518" data-name="Path 518" d="M700.016,468.665a72.746,72.746,0,0,1-38.333-10.882l-.293-.181.181-.292L699.824,395.4h73.112v.344A73,73,0,0,1,700.016,468.665Zm-37.678-11.288a72.24,72.24,0,0,0,109.909-61.289H700.208Z" transform="translate(4407.376 -22298.486)" fill="#3f3d56"/>
    <path id="Path_519" data-name="Path 519" d="M519,317.977a72.525,72.525,0,0,0,34.424,61.746l38.152-61.746-63.023-36.013A72.241,72.241,0,0,0,519,317.977Z" transform="translate(4500.747 -22224.102)" fill="#f2f2f2"/>
    <path id="Path_520" data-name="Path 520" d="M569.834,372.156l-.293-.181a72.955,72.955,0,0,1-24.989-98.223l.171-.3,63.631,36.361Zm-24.855-97.763a72.267,72.267,0,0,0,24.632,96.814l37.783-61.149Z" transform="translate(4490.292 -22218.523)" fill="#3f3d56"/>
    <path id="Path_521" data-name="Path 521" d="M804.867,148.526l-15.646,70.88H861.8A72.6,72.6,0,0,0,804.867,148.526Z" transform="translate(4323.553 -22136.602)" fill="url(#linear-gradient)"/>
    <path id="Path_522" data-name="Path 522" d="M845.693,230.581H772.344l15.812-71.634.336.074a72.943,72.943,0,0,1,57.2,71.216Zm-72.491-.689H845a72.645,72.645,0,0,0-56.324-70.125Z" transform="translate(4334.62 -22143.436)" fill="#3f3d56"/>
    <path id="Path_523" data-name="Path 523" d="M624.065,128.412a72.549,72.549,0,0,0-63.023,36.563l63.023,36.013,15.646-70.88a72.826,72.826,0,0,0-15.646-1.7Z" transform="translate(4473.179 -22123.412)" fill="#f2f2f2"/>
    <path id="Path_524" data-name="Path 524" d="M632.338,217.827,568.609,181.41l.171-.3a73.006,73.006,0,0,1,79.042-35.032l.336.074ZM569.55,181.155l62.317,35.61,15.471-70.086A72.318,72.318,0,0,0,569.55,181.155Z" transform="translate(4468.216 -22133.877)" fill="#3f3d56"/>
    <path id="Path_525" data-name="Path 525" d="M766.8,91.37l-.5-.472,37.774-40.087h30.747V51.5h-30.45Z" transform="translate(4371.29 -22028.318)" fill="#3f3d56"/>
    <rect id="Rectangle_146" data-name="Rectangle 146" width="36.288" height="1.23" transform="translate(5185.196 -21972.242)" fill="#e91e63"/>
    <rect id="Rectangle_147" data-name="Rectangle 147" width="36.288" height="1.23" transform="translate(5185.196 -21967.016)" fill="#e91e63"/>
    <rect id="Rectangle_148" data-name="Rectangle 148" width="36.288" height="1.23" transform="translate(5185.196 -21961.787)" fill="#e91e63"/>
    <rect id="Rectangle_149" data-name="Rectangle 149" width="36.288" height="1.23" transform="translate(5172.802 -21820.08)" fill="#ff5a1a"/>
    <rect id="Rectangle_150" data-name="Rectangle 150" width="36.288" height="1.23" transform="translate(5172.802 -21814.852)" fill="#ff5a1a"/>
    <rect id="Rectangle_151" data-name="Rectangle 151" width="36.288" height="1.23" transform="translate(5172.802 -21809.623)" fill="#ff5a1a"/>
    <path id="Path_526" data-name="Path 526" d="M805.837,411.115H769.509l-.1-.149L741.177,370l.567-.391,28.127,40.818h35.967Z" transform="translate(4387.762 -22237.367)" fill="#3f3d56"/>
    <path id="Path_527" data-name="Path 527" d="M151.892,657.949c-1.147,10.049,5.031,19.007,5.031,19.007s8.037-7.335,9.184-17.384-5.031-19.007-5.031-19.007S153.038,647.9,151.892,657.949Z" transform="translate(4741.567 -22459.25)" fill="#a3cb38"/>
    <path id="Path_528" data-name="Path 528" d="M135.974,663.288c4.134,9.231.956,19.638.956,19.638s-9.88-4.56-14.014-13.791-.956-19.638-.956-19.638S131.84,654.057,135.974,663.288Z" transform="translate(4761.867 -22465.109)" fill="url(#linear-gradient)"/>
    <g id="Group_318" data-name="Group 318" transform="translate(4870.515 -21968.883)">
      <path id="Path_529" data-name="Path 529" d="M719.833,442.528s9.363,10.919,7.4,11.633-11.156-7.089-10.565-9.848Z" transform="translate(-645.25 -355.734)" fill="#a0616a"/>
      <path id="Path_530" data-name="Path 530" d="M917.282,476.37s-5.083,13.456-2.99,13.456,8.074-10.466,6.579-12.858Z" transform="translate(-897.81 -379.456)" fill="#a0616a"/>
      <ellipse id="Ellipse_241" data-name="Ellipse 241" cx="11.064" cy="3.588" rx="11.064" ry="3.588" transform="translate(16.218 188.003) rotate(-125.356)" fill="#2f2e41"/>
      <ellipse id="Ellipse_242" data-name="Ellipse 242" cx="11.064" cy="3.588" rx="11.064" ry="3.588" transform="translate(55.901 192.203) rotate(-139.477)" fill="#2f2e41"/>
      <path id="Path_531" data-name="Path 531" d="M801.843,167.735c.839-1.187,1.872-2.224,2.757-3.377,2.042-2.658,2.749-6.2,5.489-8.237,2.712-2.017,7.015-4,10.408-3.842,4.472.21,8.02,3.679,11.1,6.925l7.068,7.443c1.7,1.795,3.472,3.7,4.086,6.1a9.984,9.984,0,0,1-1.067,6.9,16.792,16.792,0,0,1-4.618,5.513c-2.366-3.258-5.68-7.756-5.68-7.756l-.772,11.189a32.684,32.684,0,0,1-12.538,1.3l-1.251-4.587-1.313,4.333c-5.048-.669-10.119-2.412-13.243-6.351A13.341,13.341,0,0,1,801.843,167.735Z" transform="translate(-785.534 -152.27)" fill="#2f2e41"/>
      <circle id="Ellipse_243" data-name="Ellipse 243" cx="9.27" cy="9.27" r="9.27" transform="translate(26.35 6.907)" fill="#a0616a"/>
      <path id="Path_532" data-name="Path 532" d="M829.829,221.37s-.6,7.177,3.289,7.775,8.074,0,8.074,2.392-2.99,24.221-2.99,24.221l-7.476-.6L820.26,244.993l-5.682-11.064s6.878-2.99,3.887-11.961Z" transform="translate(-788.229 -200.707)" fill="#a0616a"/>
      <path id="Path_533" data-name="Path 533" d="M818.861,262.787l2.99-8.074-.6-11.064s-6.566-.9-6.423-6.28l4.927,2.093,11.363,1.794v10.466a11.754,11.754,0,0,1-.6,12.559l-2.093,13.157-21.53-1.5-6.878-8.971-8.672-17.044,8.971-6.579-1.2-1.794,4.576-2.984-.688,5.675,2.093,3.588S814.675,249.63,818.861,262.787Z" transform="translate(-772.776 -211.923)" fill="#ff5a1a"/>
      <path id="Path_534" data-name="Path 534" d="M737.775,250.968l1.794-.6a6.614,6.614,0,0,1,3.588,6.28c0,4.784,14.353,52.03,14.353,52.03l-6.578,1.794-8.971-21.829L736.579,270.4Z" transform="translate(-681.224 -221.036)" fill="#ecf0f1"/>
      <path id="Path_535" data-name="Path 535" d="M905.064,279.239h-2.392s-1.5-1.2-1.2,7.476-.9,54.423-.9,54.423l8.672-.6,2.093-49.339Z" transform="translate(-884.097 -241.233)" fill="#ecf0f1"/>
      <path id="Path_536" data-name="Path 536" d="M830.776,354.851s20.268-3.726,24.753-.138a2.619,2.619,0,0,0-.6,1.794c0,1.2-.6-.3,0,1.2s1.794.3.6,1.5-1.5.9-.9,1.794a3.068,3.068,0,0,1,0,2.392s3.289,15.549.3,26.613-27.809,89.109-34.388,87.016-23.025-11.662-22.128-14.951,31.1-48.741,31.1-48.741-12.559-39.172,2.392-51.731c0,0-.9-1.2-.6-2.093s.6,0,.3-.9-1.794-.9-.9-1.794A1.49,1.49,0,0,0,830.776,354.851Z" transform="translate(-798.38 -293.084)" fill="#1b2631"/>
      <path id="Path_537" data-name="Path 537" d="M796.631,466.37s20.334,90.9,16.147,92.4-20.334,1.794-21.53,0-9.569-66.085-9.569-66.085Z" transform="translate(-750.546 -372.446)" fill="#1b2631"/>
      <path id="Path_538" data-name="Path 538" d="M861.506,168.449s-7.476,8.971-22.427,3.887l4.186-7.476,9.868-2.99Z" transform="translate(-815.869 -158.999)" fill="#2f2e41"/>
      <path id="Path_541" data-name="Path 541" d="M701.63,472.308q.892-.055,1.79-.107l-.034-.6q-.9.052-1.792.108Z" transform="translate(-616.672 -376.115)" fill="#3f3d56"/>
    </g>
    <path id="Path_555" data-name="Path 555" d="M5169.953-21823.15" transform="translate(-196.353 -112.688)" fill="none" stroke="#707070" stroke-width="1"/>
    <path id="Polygon_3" data-name="Polygon 3" d="M2.41,0,4.82,4.131H0Z" transform="translate(4977.403 -21932) rotate(180)" fill="#f77824"/>
    <path id="Polygon_4" data-name="Polygon 4" d="M1.033,0,2.066,1.721H0Z" transform="translate(4973.96 -21934.064)" fill="#ff5a1a"/>
    <path id="Path_556" data-name="Path 556" d="M5164.179-21813l-4.218,32.488,2.547,5.094,3.5-5.094-.458-32.488Z" transform="translate(-189.801 -119.344)" fill="url(#linear-gradient)"/>
  </g>
</svg>
