<svg xmlns="http://www.w3.org/2000/svg" xmlns:xlink="http://www.w3.org/1999/xlink" width="352" height="246.973" viewBox="0 0 352 246.973">
  <defs>
    <linearGradient id="linear-gradient" x1="0.5" x2="0.5" y2="1" gradientUnits="objectBoundingBox">
      <stop offset="0" stop-color="#fe9b24"/>
      <stop offset="0.46" stop-color="#f77824"/>
      <stop offset="1" stop-color="#ff5a1a"/>
    </linearGradient>
    <linearGradient id="linear-gradient-2" x1="0.5" x2="0.362" y2="1.729" gradientUnits="objectBoundingBox">
      <stop offset="0" stop-color="#ff5a1a"/>
      <stop offset="1" stop-color="#0652dd"/>
    </linearGradient>
  </defs>
  <g id="photo-1" transform="translate(-2655 20101)">
    <ellipse id="Ellipse_223" data-name="Ellipse 223" cx="132.398" cy="10.344" rx="132.398" ry="10.344" transform="translate(2655 -19874.715)" fill="url(#linear-gradient)"/>
    <path id="Path_472" data-name="Path 472" d="M397.608,708.663c-.073-.119-1.8-2.995-2.392-8.966-.548-5.478-.2-14.712,4.593-27.593a55.644,55.644,0,0,0-2.2-44.286l.551-.32a48.874,48.874,0,0,1,4.611,13.063,56.988,56.988,0,0,1-2.36,31.765c-9.057,24.36-2.324,35.892-2.255,36.005Z" transform="translate(2307.088 -20580.348)" fill="#3f3d56"/>
    <circle id="Ellipse_224" data-name="Ellipse 224" cx="4.137" cy="4.137" r="4.137" transform="translate(2697.011 -19962.236)" fill="#0652dd"/>
    <circle id="Ellipse_225" data-name="Ellipse 225" cx="4.137" cy="4.137" r="4.137" transform="translate(2710.06 -19946.961)" fill="#3f3d56"/>
    <circle id="Ellipse_226" data-name="Ellipse 226" cx="4.137" cy="4.137" r="4.137" transform="translate(2701.148 -19936.775)" fill="#e91e63"/>
    <circle id="Ellipse_227" data-name="Ellipse 227" cx="4.137" cy="4.137" r="4.137" transform="translate(2711.969 -19928.182)" fill="url(#linear-gradient-2)"/>
    <circle id="Ellipse_228" data-name="Ellipse 228" cx="4.137" cy="4.137" r="4.137" transform="translate(2697.966 -19914.814)" fill="#3f3d56"/>
    <path id="Path_473" data-name="Path 473" d="M409.582,844.823s-4.137-10.184,8.275-17.823Z" transform="translate(2297.613 -20716.355)" fill="#3f3d56"/>
    <path id="Path_474" data-name="Path 474" d="M359.76,859.418s-1.883-10.83-16.457-10.737Z" transform="translate(2342.346 -20731.135)" fill="#3f3d56"/>
    <path id="Path_475" data-name="Path 475" d="M613.131,317s.318,8.275-1.591,10.184,9.548,8.593,9.548,8.593l6.684-10.5s-2.546-4.456-1.91-8.275Z" transform="translate(2182.86 -20367.078)" fill="#a0616a"/>
    <path id="Path_476" data-name="Path 476" d="M305.5,683.5v7.957l9.866.637-.637-8.593Z" transform="translate(2469.963 -20565.375)" fill="#a0616a"/>
    <path id="Path_477" data-name="Path 477" d="M454.366,683.5v7.957l-9.866.637.637-8.593Z" transform="translate(2375.202 -20565.375)" fill="#a0616a"/>
    <path id="Path_478" data-name="Path 478" d="M553.956,564.759s-5.092,18.459-1.91,33.1c0,0,0,6.365,1.273,7.638s1.591,1.273.637,1.91-2.864,2.228-1.91,3.183,1.273,2.228.636,2.546a1.458,1.458,0,0,0-.636,2.228c.636,1.273-3.183,35.327-3.183,35.327s-3.819,4.137,0,4.456,10.184,1.91,10.821-.637S565.414,616,565.414,616s.636-.955,1.91-2.546.637-2.228.637-2.546,6.683-30.553,6.683-30.553,9.866,34.373,10.821,35.009,1.273.636,1.273,1.591-.637,1.591,0,2.546a16.53,16.53,0,0,1,.955,1.591s1.591,35.646,4.774,35.646,12.731-.637,11.776-3.5-2.228-2.228-2.228-2.228,2.228-29.28-3.183-37.873v-7c0-.636.318-.955,0-1.591s.955-38.51-5.092-40.738S553.956,564.759,553.956,564.759Z" transform="translate(2226.599 -20534.793)" fill="#707070"/>
    <path id="Path_479" data-name="Path 479" d="M530.4,858.046s-1.591-2.546-3.819-2.546-3.819,2.546-3.819,2.546L517.031,866s-8.275,5.092-5.092,7.957,11.776,1.273,11.776,1.273,7-5.092,7.957-5.41a20.2,20.2,0,0,0,3.819-2.228c.318-.318-.637-11.776-1.591-10.98S532.308,859.956,530.4,858.046Z" transform="translate(2251.111 -20734.193)" fill="#ecf0f1"/>
    <path id="Path_480" data-name="Path 480" d="M692.458,858.046s1.591-2.546,3.819-2.546,3.819,2.546,3.819,2.546L705.826,866s8.275,5.092,5.092,7.957-11.776,1.273-11.776,1.273-7-5.092-7.957-5.41a20.2,20.2,0,0,1-3.819-2.228c-.318-.318.637-11.776,1.591-10.98S690.549,859.956,692.458,858.046Z" transform="translate(2131.062 -20734.193)" fill="#ecf0f1"/>
    <path id="Path_504" data-name="Path 504" d="M11.458,0C17.785,0,22.9,5.1,22.9,12.484c0,.139.993-.211,1.387,0,.473.256.53,1.946.53,1.946s-.282,2.026-.966,2.635c-.394.35-1.363.523-1.427.833-.128.617-.143-.049-.382.639-1.639,4.739-5.764,8.214-10.584,8.214C5.13,26.751,0,20.763,0,13.375S5.13,0,11.458,0Z" transform="translate(2790.103 -20072.213)" fill="#a0616a"/>
    <path id="Path_481" data-name="Path 481" d="M582.051,339.458s-2.141.118-3.139-3.124L562,348.688l7,18.778s.955,10.184,0,13.049a25.573,25.573,0,0,0-1.591,6.365c0,1.273-6.684,22.6-4.138,23.552s41.374,4.774,42.329-1.591-3.183-48.376-3.183-48.376l6.684-16.231L592.854,333.6S591.28,340.095,582.051,339.458Z" transform="translate(2216.486 -20378.396)" fill="#1b2631"/>
    <path id="Path_482" data-name="Path 482" d="M545.206,444.5l-1.273,9.866a50.738,50.738,0,0,0-3.819,24.506l-.318,9.23s-3.183,15.913,3.183,16.55,2.228-17.5,2.228-17.5l3.5-8.593,3.584-19.116,1.827-13.347Z" transform="translate(2232.167 -20453.998)" fill="#a0616a"/>
    <path id="Path_483" data-name="Path 483" d="M561.784,379.5l-4.615.477s-3.023,22.438-2.069,22.438,11.776,2.546,12.094,1.91S561.784,379.5,561.784,379.5Z" transform="translate(2221.317 -20409.686)" fill="#1b2631"/>
    <path id="Path_503" data-name="Path 503" d="M561.784,379.5l-4.615.477s-3.023,22.438-2.069,22.438,11.776,2.546,12.094,1.91S561.784,379.5,561.784,379.5Z" transform="translate(2221.317 -20409.686)" fill="#424949" opacity="0.16"/>
    <path id="Path_486" data-name="Path 486" d="M687.978,433.5v13.049s.318,15.913-5.092,25.779l-2.864,6.365-3.785,9.907s-6.164-1.851-5.207-4.3c1.378-3.529,3.582-8.151,3.582-8.151l4.143-24.226L676.2,435.728Z" transform="translate(2142.227 -20446.5)" fill="#a0616a"/>
    <path id="Path_487" data-name="Path 487" d="M685.046,364.5l6.206.8s7.479,22.756,5.57,23.711S682.5,390.6,682.5,390.6Z" transform="translate(2134.337 -20399.461)" fill="#1b2631"/>
    <path id="Path_502" data-name="Path 502" d="M685.046,364.5l6.206.8s7.479,22.756,5.57,23.711S682.5,390.6,682.5,390.6Z" transform="translate(2134.337 -20399.461)" fill="#424949" opacity="0.09"/>
    <path id="Path_475-2" data-name="Path 475" d="M625.311,317s-.3,7.905,1.52,9.729-9.121,8.209-9.121,8.209l-6.385-10.033s2.432-4.257,1.824-7.905Z" transform="translate(2104.939 -20358.518)" fill="#a0616a"/>
    <path id="Path_476-2" data-name="Path 476" d="M314.925,683.5v7.6l-9.425.608.608-8.209Z" transform="translate(2434.936 -20564.332)" fill="#a0616a"/>
    <path id="Path_477-2" data-name="Path 477" d="M444.5,683.5v7.6l9.425.608-.608-8.209Z" transform="translate(2253.674 -20564.332)" fill="#a0616a"/>
    <path id="Path_478-2" data-name="Path 478" d="M595.269,564.681s4.865,17.635,1.824,31.62c0,0,0,6.081-1.216,7.3s-1.52,1.216-.608,1.824,2.736,2.128,1.824,3.04-1.216,2.128-.608,2.432a1.392,1.392,0,0,1,.608,2.128c-.608,1.216,3.04,33.749,3.04,33.749s3.648,3.953,0,4.257-9.729,1.824-10.337-.608-5.473-36.789-5.473-36.789-.608-.912-1.824-2.432-.608-2.128-.608-2.432-6.385-29.188-6.385-29.188-9.425,32.837-10.337,33.445-1.216.608-1.216,1.52.608,1.52,0,2.432a15.8,15.8,0,0,0-.912,1.52s-1.52,34.053-4.561,34.053-12.162-.608-11.25-3.344,2.128-2.128,2.128-2.128S547.231,619.1,552.4,610.9v-6.689c0-.608-.3-.912,0-1.52s-.912-36.789,4.865-38.917S595.269,564.681,595.269,564.681Z" transform="translate(2149.728 -20529.732)" fill="#424949"/>
    <path id="Path_479-2" data-name="Path 479" d="M516.135,857.932s1.52-2.432,3.649-2.432,3.648,2.432,3.648,2.432l5.473,7.6s7.905,4.865,4.865,7.6-11.25,1.216-11.25,1.216-6.689-4.865-7.6-5.169a19.3,19.3,0,0,1-3.648-2.128c-.3-.3.608-11.25,1.52-10.49S514.311,859.757,516.135,857.932Z" transform="translate(2227.949 -20733.291)" fill="#2f2e41"/>
    <path id="Path_480-2" data-name="Path 480" d="M705.634,857.932s-1.52-2.432-3.648-2.432-3.649,2.432-3.649,2.432l-5.473,7.6s-7.905,4.865-4.865,7.6,11.25,1.216,11.25,1.216,6.689-4.865,7.6-5.169a19.3,19.3,0,0,0,3.648-2.128c.3-.3-.608-11.25-1.52-10.49S707.459,859.757,705.634,857.932Z" transform="translate(1998.317 -20733.291)" fill="#2f2e41"/>
    <path id="Path_505" data-name="Path 505" d="M9.1,0a10.946,10.946,0,0,1,0,21.891A10.765,10.765,0,0,1-1.389,12.54c-.074-.456-.4-.292-.4-.885,0-.221-.15-.287-.433-.49A4.772,4.772,0,0,1-2.6,9.991a3.933,3.933,0,0,1,0-1.876C-1.528,3.316,3.873,0,9.1,0Z" transform="translate(2715.834 -20059)" fill="#a0616a"/>
    <path id="Path_481-2" data-name="Path 481" d="M587.844,339.2s2.045.113,3-2.984L607,348.014l-6.689,17.939s-.912,9.729,0,12.466a24.431,24.431,0,0,1,1.52,6.081c0,1.216,6.385,21.587,3.953,22.5s-39.526,4.561-40.438-1.52,3.04-46.214,3.04-46.214L562,343.757,577.523,333.6S579.026,339.8,587.844,339.2Z" transform="translate(2139.975 -20370.074)" fill="#ecf0f1"/>
    <path id="Path_482-2" data-name="Path 482" d="M547.513,444.5l1.216,9.425a48.47,48.47,0,0,1,3.649,23.411l.3,8.817s3.04,15.2-3.04,15.81-2.128-16.722-2.128-16.722l-3.345-8.209-3.424-18.261L539,446.02Z" transform="translate(2200.524 -20447.252)" fill="#a0616a"/>
    <path id="Path_483-2" data-name="Path 483" d="M560.1,379.5l4.409.456s2.888,21.435,1.976,21.435-11.25,2.432-11.554,1.824S560.1,379.5,560.1,379.5Z" transform="translate(2182.469 -20402.016)" fill="#ecf0f1"/>
    <path id="Path_500" data-name="Path 500" d="M560.1,379.5l4.409.456s2.888,21.435,1.976,21.435-11.25,2.432-11.554,1.824S560.1,379.5,560.1,379.5Z" transform="translate(2182.469 -20402.016)" fill="#1b2631" opacity="0.01"/>
    <path id="Path_484" data-name="Path 484" d="M624.315,244.055l1.364-2.664s-1.362,1.863-2.411.937c-.494-.437.09-1.727-.536-2.041-.37-.185-.239,1.41-.737,1.1-.348-.215-.45-1.955-.908-2.144-.517-.213-.983,1.266-1.614,1.041-.472-.169.664-1.284,0-1.375-.634-.088-2.252.608-3.05.658l1.614-1.614a5.9,5.9,0,0,1-2.741.957c-.582-.008-.934-1.1-1.474-.957s.075,1.369-.335,1.291c-1.036-.2-.124-2.25-1.608-1.291-.479.308-.824,1.752-1.377,2.332-.441.463-.933-1.17-1.973-1.375-.529-.1-1.611,1.163-2.077,1.375-.21.094.218,1.441,0,1.706-.172.209-1.375-1.017-1.511-.6-.109.326.866,2.325.779,2.878a11.027,11.027,0,0,1-.647,2.949l-1.231,1.764.081,1.447a16.53,16.53,0,0,0,.3,4.568l.372.581a3.212,3.212,0,0,1-.372-3.272c.57-1.233,3.588-1.484,3.588-1.794v1.794s1.973-1.614,3.049-1.435a2.356,2.356,0,0,1,1.018-2.245c1.273-.923,7.427.731,9.207,1.169a6.788,6.788,0,0,0,3.856-.538l1.742,4.862a15.381,15.381,0,0,0-.67-4.5,4.611,4.611,0,0,1-.335-.99c-.256-.916.872-1.975.335-2.948-.291-.528.527-3.262,0-3.684C625.782,241.808,624.7,244.251,624.315,244.055Z" transform="translate(2109.06 -20303.33)" fill="#2f2e41"/>
    <path id="Path_486-2" data-name="Path 486" d="M670.931,433.5v12.466s-.3,15.2,4.865,24.627l2.736,6.081,3.616,9.464s5.889-1.768,4.975-4.109c-1.316-3.371-3.422-7.787-3.422-7.787L679.743,451.1l2.437-15.47Z" transform="translate(2026.635 -20439.596)" fill="#a0616a"/>
    <path id="Path_487-2" data-name="Path 487" d="M694.048,364.5l-5.929.76S680.974,387,682.8,387.911s13.682,1.52,13.682,1.52Z" transform="translate(2013.856 -20391.576)" fill="#ecf0f1"/>
    <path id="Path_501" data-name="Path 501" d="M694.048,364.5l-5.929.76S680.974,387,682.8,387.911s13.682,1.52,13.682,1.52Z" transform="translate(2013.856 -20391.576)" fill="#1b2631" opacity="0.01"/>
    <rect id="Rectangle_140" data-name="Rectangle 140" width="145.765" height="163.187" transform="translate(2843.094 -20085.004)" fill="#f2f2f2"/>
    <path id="Path_488" data-name="Path 488" d="M864.734,597.451h-3.819v-.637h3.819Zm-7.638,0h-3.819v-.637H857.1Zm-7.638,0h-3.819v-.637h3.819Zm-7.638,0H838v-.637h3.819Z" transform="translate(2005.094 -20559.428)" fill="#e6e6e6"/>
    <path id="Path_489" data-name="Path 489" d="M918.2,502.637h-3.819V502H918.2Zm-7.638,0h-3.819V502h3.819Zm-7.638,0h-3.819V502h3.819Zm-7.638,0h-3.819V502h3.819Zm-7.638,0H883.83V502h3.819Zm-7.638,0h-3.819V502h3.819Zm-7.638,0h-3.819V502h3.819Zm-7.638,0h-3.819V502h3.819Zm-7.638,0h-3.819V502H857.1Zm-7.638,0h-3.819V502h3.819Zm-7.638,0H838V502h3.819Z" transform="translate(2005.094 -20494.791)" fill="#e6e6e6"/>
    <path id="Path_490" data-name="Path 490" d="M994.586,443.637h-3.819V443h3.819Zm-7.638,0h-3.819V443h3.819Zm-7.638,0H975.49V443h3.819Zm-7.638,0h-3.819V443h3.819Zm-7.638,0h-3.819V443h3.819Zm-7.638,0h-3.819V443h3.819Zm-7.638,0h-3.819V443h3.819Zm-7.638,0H937.3V443h3.819Zm-7.638,0H929.66V443h3.819Zm-7.638,0h-3.819V443h3.819Zm-7.638,0h-3.819V443H918.2Zm-7.638,0h-3.819V443h3.819Zm-7.638,0h-3.819V443h3.819Zm-7.638,0h-3.819V443h3.819Zm-7.638,0H883.83V443h3.819Zm-7.638,0h-3.819V443h3.819Zm-7.638,0h-3.819V443h3.819Zm-7.638,0h-3.819V443h3.819Zm-7.638,0h-3.819V443H857.1Zm-7.638,0h-3.819V443h3.819Zm-7.638,0H838V443h3.819Z" transform="translate(2005.094 -20454.568)" fill="#e6e6e6"/>
    <path id="Path_491" data-name="Path 491" d="M927.637,319.537H927v-3.756h.637Zm0-7.512H927V308.27h.637Zm0-7.512H927v-3.755h.637Zm0-7.511H927v-3.756h.637Zm0-7.512H927v-3.756h.637Zm0-7.512H927v-3.755h.637Zm0-7.511H927v-3.756h.637Zm0-7.512H927V263.2h.637Zm0-7.512H927V255.69h.637Zm0-7.511H927v-3.756h.637Zm0-7.512H927v-3.755h.637Zm0-7.511H927v-3.755h.637Zm0-7.511H927v-3.755h.637Zm0-7.512H927v-3.755h.637Zm0-7.511H927v-3.756h.637Zm0-7.511H927V203.11h.637Zm0-7.512H927V195.6h.637Zm0-7.511H927v-3.756h.637Zm0-7.511H927v-3.756h.637Z" transform="translate(1944.42 -20275.664)" fill="#e6e6e6"/>
    <rect id="Rectangle_142" data-name="Rectangle 142" width="0.637" height="1.91" transform="translate(2871.419 -19952.371)" fill="#e6e6e6"/>
    <path id="Path_492" data-name="Path 492" d="M1101.637,290.616H1101v-3.791h.637Zm0-7.581H1101v-3.791h.637Zm0-7.581H1101v-3.791h.637Zm0-7.581H1101v-3.791h.637Zm0-7.581H1101V256.5h.637Zm0-7.581H1101v-3.791h.637Zm0-7.581H1101v-3.791h.637Zm0-7.581H1101v-3.79h.637Zm0-7.581H1101v-3.791h.637Zm0-7.581H1101v-3.791h.637Zm0-7.581H1101v-3.791h.637Zm0-7.581H1101V203.43h.637Zm0-7.581H1101v-3.791h.637Zm0-7.581H1101v-3.791h.637Zm0-7.581H1101v-3.791h.637Z" transform="translate(1825.797 -20275.738)" fill="#e6e6e6"/>
    <rect id="Rectangle_144" data-name="Rectangle 144" width="0.637" height="1.91" transform="translate(2926.797 -19981.332)" fill="#e6e6e6"/>
    <path id="Path_493" data-name="Path 493" d="M591,393.248l28.962-28.962,13.208,13.208,41.852-41.852,27.052,27.052L750.769,314v79.248Z" transform="translate(2252.094 -20315.064)" fill="#ff5a1a"/>
    <path id="Path_494" data-name="Path 494" d="M997.405,341.5H837V162H997.405Zm-159.769-.637H996.769V162.637H837.637Z" transform="translate(2005.776 -20263)" fill="#3f3d56"/>
    <circle id="Ellipse_234" data-name="Ellipse 234" cx="4.137" cy="4.137" r="4.137" transform="translate(2867.6 -19967.012)" fill="url(#linear-gradient)"/>
    <circle id="Ellipse_235" data-name="Ellipse 235" cx="4.137" cy="4.137" r="4.137" transform="translate(2922.978 -19996.609)" fill="url(#linear-gradient)"/>
    <circle id="Ellipse_236" data-name="Ellipse 236" cx="4.137" cy="4.137" r="4.137" transform="translate(2998.725 -20015.387)" fill="url(#linear-gradient)"/>
    <path id="Path_495" data-name="Path 495" d="M999.079,242a19.221,19.221,0,0,1-6.174.805l2.4,1.594-112.9,83.595.379.512,112.9-83.595.825,2.76A19.277,19.277,0,0,1,999.079,242Z" transform="translate(1974.822 -20317.539)" fill="#a3cb38"/>
    <path id="Path_496" data-name="Path 496" d="M2800.084-19363.234s-1.346-.078-5.151,2.654-6.144,4.52-6.144,4.52" transform="translate(-91.209 -502.962)" fill="none" stroke="#f77824" stroke-width="1"/>
    <path id="Path_497" data-name="Path 497" d="M2919.436-19363.234a26.458,26.458,0,0,0,3.332,1.855,17.771,17.771,0,0,1,4.586,2.783" transform="translate(-180.275 -502.962)" fill="none" stroke="#f77824" stroke-width="1"/>
    <path id="Path_498" data-name="Path 498" d="M3177.474-19384.348l-3.242,7.451-3.073-1.861,4.268-7.945Z" transform="translate(-349.656 -486.007)" fill="#ffc312"/>
    <path id="Path_499" data-name="Path 499" d="M3041.577-19371.875l-4.641-6.711-2.151,2.715,3.813,5.986Z" transform="translate(-258.913 -492.496)" fill="#ffc312"/>
    <text id="NS" transform="translate(2799.081 -20017.662)" fill="#fe9b24" font-size="5" font-family="savatage"><tspan x="-4.333" y="0">NS</tspan></text>
    <text id="NS-2" data-name="NS" transform="translate(2725.244 -20007.797)" fill="#fe9b24" font-size="5" font-family="savatage"><tspan x="-4.333" y="0">NS</tspan></text>
  </g>
</svg>
