<svg xmlns="http://www.w3.org/2000/svg" xmlns:xlink="http://www.w3.org/1999/xlink" width="92" height="92" viewBox="0 0 92 92">
  <defs>
    <linearGradient id="linear-gradient" x1="0.5" x2="0.5" y2="1" gradientUnits="objectBoundingBox">
      <stop offset="0" stop-color="#fe9b24"/>
      <stop offset="0.46" stop-color="#f77824"/>
      <stop offset="1" stop-color="#ff5a1a"/>
    </linearGradient>
  </defs>
  <g id="service-6" transform="translate(-1291 -1412)">
    <circle id="Ellipse_261" data-name="Ellipse 261" cx="46" cy="46" r="46" transform="translate(1291 1412)" fill="#ecf0f1"/>
    <g id="Orion_ecommerce-cart" transform="translate(1305 1426)">
      <path id="layer2" d="M54,46H22L16,22H62Z" fill="url(#linear-gradient)"/>
      <circle id="layer1" cx="4" cy="4" r="4" transform="translate(20 50)" fill="#1b2631"/>
      <circle id="layer1-2" data-name="layer1" cx="4" cy="4" r="4" transform="translate(46 50)" fill="#1b2631"/>
      <path id="opacity" d="M18,30l1,4H58l1.3-4Zm3,12H55.3l1.4-4H20Z" fill="#000064" opacity="0.15"/>
      <path id="stroke" d="M62,22H16M2,6H12L22,46H54" fill="none" stroke="#2e4369" stroke-linecap="round" stroke-linejoin="round" stroke-width="2"/>
      <circle id="stroke-2" data-name="stroke" cx="4" cy="4" r="4" transform="translate(20 50)" stroke-width="2" stroke="#2e4369" stroke-linecap="round" stroke-linejoin="round" fill="none"/>
      <circle id="stroke-3" data-name="stroke" cx="4" cy="4" r="4" transform="translate(46 50)" stroke-width="2" stroke="#2e4369" stroke-linecap="round" stroke-linejoin="round" fill="none"/>
      <path id="stroke-4" data-name="stroke" d="M59,30H26m30,8H28" fill="none" stroke="#2e4369" stroke-linecap="round" stroke-linejoin="round" stroke-width="2"/>
    </g>
  </g>
</svg>
