<svg xmlns="http://www.w3.org/2000/svg" xmlns:xlink="http://www.w3.org/1999/xlink" width="678" height="513.357" viewBox="0 0 678 513.357">
  <defs>
    <linearGradient id="linear-gradient" x1="0.5" x2="0.5" y2="1" gradientUnits="objectBoundingBox">
      <stop offset="0" stop-color="#fe9b24"/>
      <stop offset="0.46" stop-color="#f77824"/>
      <stop offset="1" stop-color="#ff5a1a"/>
    </linearGradient>
  </defs>
  <g id="tech" transform="translate(-977 -3156.261)">
    <path id="Path_625" data-name="Path 625" d="M702.966,240.3C673.431,124.156,571.375,40.318,451.583,36.956c-63.33-1.778-129.971,19.226-178.491,92.726-86.734,131.389,5.33,222.183,69.515,265.326A401.617,401.617,0,0,1,425.62,469.62C468.975,521.067,552.379,585,651.71,484.829,723.7,412.226,722.64,317.661,702.966,240.3Z" transform="translate(851.526 3119.407)" fill="url(#linear-gradient)"/>
    <path id="Path_626" data-name="Path 626" d="M719.6,420.944l60.776-60.591L719.6,299.762l18.529-18.468,79.306,79.059-79.306,79.059L719.6,420.944Z" transform="translate(701.859 3048.707)" opacity="0.1"/>
    <path id="Path_627" data-name="Path 627" d="M494.6,437.853h24.706V413.147H494.6Zm124.024-24.706H593.918v24.706h24.706Zm-74.365,24.706h24.706V413.147H544.259Z" transform="translate(753.3 2975.53)" opacity="0.1"/>
    <path id="Path_628" data-name="Path 628" d="M323.835,419.944,263,359.353l60.776-60.591-18.529-18.468L226,359.353l79.306,79.059Z" transform="translate(890.588 3049.089)" opacity="0.1"/>
    <path id="Path_629" data-name="Path 629" d="M728,787.265c0,10.234-150.432,45.706-336,45.706S56,797.5,56,787.265s150.432,8.647,336,8.647S728,777.031,728,787.265Z" transform="translate(921 2833.647)" fill="#f77824"/>
    <path id="Path_630" data-name="Path 630" d="M728,787.265c0,10.234-150.432,45.706-336,45.706S56,797.5,56,787.265s150.432,8.647,336,8.647S728,777.031,728,787.265Z" transform="translate(927 2836.647)" fill="rgba(7,7,7,0.86)" opacity="0.1"/>
    <ellipse id="Ellipse_254" data-name="Ellipse 254" cx="336" cy="18.529" rx="336" ry="18.529" transform="translate(977 3602.383)" fill="#ff5a1a"/>
    <path id="Path_631" data-name="Path 631" d="M688.7,644.806c0,39.539,24.8,71.534,55.459,71.534" transform="translate(679.087 2886.955)" fill="#3f3d56"/>
    <path id="Path_632" data-name="Path 632" d="M778.487,715.843c0-39.984,27.681-72.338,61.889-72.338" transform="translate(644.755 2887.452)" fill="#6c63ff"/>
    <path id="Path_633" data-name="Path 633" d="M721.229,650.609c0,37.558,15.818,67.95,35.365,67.95" transform="translate(666.648 2884.736)" fill="#6c63ff"/>
    <path id="Path_634" data-name="Path 634" d="M778.487,703.4c0-51.09,31.995-92.431,71.534-92.431" transform="translate(644.755 2899.891)" fill="#3f3d56"/>
    <path id="Path_635" data-name="Path 635" d="M759.6,758.809s7.865-.242,10.235-1.93,12.1-3.7,12.686-1,11.82,13.463,2.94,13.535-20.632-1.383-23-2.824S759.6,758.809,759.6,758.809Z" transform="translate(651.978 2844.99)" fill="#a8a8a8"/>
    <path id="Path_636" data-name="Path 636" d="M785.617,771.1c-8.88.072-20.632-1.383-23-2.824-1.8-1.1-2.52-5.035-2.76-6.852l-.263.01s.5,6.343,2.864,7.784,14.118,2.9,23,2.824c2.563-.021,3.449-.933,3.4-2.283C788.5,770.575,787.525,771.084,785.617,771.1Z" transform="translate(651.978 2842.365)" opacity="0.2"/>
    <path id="Path_637" data-name="Path 637" d="M908.808,413.322s-19.016-14.438-20.46-9.146S902.3,421.5,902.3,421.5Z" transform="translate(602.786 2979.406)" fill="#ffb9b9"/>
    <path id="Path_638" data-name="Path 638" d="M908.808,413.322s-19.016-14.438-20.46-9.146S902.3,421.5,902.3,421.5Z" transform="translate(602.786 2979.406)" opacity="0.1"/>
    <path id="Path_639" data-name="Path 639" d="M979.221,345.7s-22.614,40.416-23.095,46.189-.481,6.255-2.406,5.774-28.387-3.368-30.793-2.406-7.217-5.774-7.217-5.774-9.142,9.142-7.217,11.066,7.7,2.887,8.662,5.293,2.406,4.811,6.736,4.33,33.68,7.7,37.529,6.255,4.811-3.849,6.736-3.849,5.774-1.925,5.774-2.406S987.4,384.187,987.4,384.187,1003.279,349.544,979.221,345.7Z" transform="translate(595.148 3001.321)" fill="url(#linear-gradient)"/>
    <path id="Path_640" data-name="Path 640" d="M979.221,345.7s-22.614,40.416-23.095,46.189-.481,6.255-2.406,5.774-28.387-3.368-30.793-2.406-7.217-5.774-7.217-5.774-9.142,9.142-7.217,11.066,7.7,2.887,8.662,5.293,2.406,4.811,6.736,4.33,33.68,7.7,37.529,6.255,4.811-3.849,6.736-3.849,5.774-1.925,5.774-2.406S987.4,384.187,987.4,384.187,1003.279,349.544,979.221,345.7Z" transform="translate(598.458 3001.321)" fill="#ff5a1a" opacity="0.1"/>
    <path id="Path_641" data-name="Path 641" d="M962.813,297.719a40.015,40.015,0,0,0,.123,7.671c.731,5.528,3.276,11.29.872,16.45-.873,1.873-2.351,3.5-3.156,5.4-1.7,4.012-.159,8.463-.391,12.733-.3,5.517-3.808,10.832-9.145,13.855,9.119.283,17.791-4.225,23.528-10.369s8.933-13.764,11.328-21.388a46.5,46.5,0,0,0,2.35-11.07,15.954,15.954,0,0,0-.746-6.415,24.438,24.438,0,0,0-3.3-5.635,22.222,22.222,0,0,0-5.033-5.583c-2.611-1.851-7.645-3.71-11.109-3.44C963.887,290.26,962.992,294.77,962.813,297.719Z" transform="translate(578.75 3022.652)" fill="#2f2e41"/>
    <path id="Path_642" data-name="Path 642" d="M992.792,325.213s5.293,18.765.962,24.057,25.982-2.406,25.982-2.406-14.915-14.915-7.7-24.538Z" transform="translate(562.815 3010.256)" fill="#ffb9b9"/>
    <path id="Path_643" data-name="Path 643" d="M992.792,325.213s5.293,18.765.962,24.057,25.982-2.406,25.982-2.406-14.915-14.915-7.7-24.538Z" transform="translate(562.815 3010.256)" opacity="0.1"/>
    <path id="Path_644" data-name="Path 644" d="M719.6,401.944l60.776-60.591L719.6,280.762l18.529-18.468,79.306,79.059-79.306,79.059L719.6,401.944Z" transform="translate(701.859 3055.971)" fill="#a3cb38"/>
    <path id="Path_645" data-name="Path 645" d="M908.748,694.923v13.953l7.217,8.66,6.255-2.887L920.3,694.442Z" transform="translate(629.537 2890.738)" fill="#ffb9b9"/>
    <path id="Path_646" data-name="Path 646" d="M955.929,750.843s-1.925-6.736-5.293-1.925-6.736,15.4-8.661,15.878-15.4,15.4-1.925,15.4,17.8-6.255,17.8-6.255,13.472-5.292,13.472-6.255-1.925-18.765-2.887-18.765-1.443,3.368-3.849,3.368A62.382,62.382,0,0,1,955.929,750.843Z" transform="translate(585.243 2847.809)" fill="#ecf0f1"/>
    <path id="Path_647" data-name="Path 647" d="M960.643,698.52l-.481,12.991,11.547,4.811V697.558Z" transform="translate(609.879 2889.547)" fill="#ffb9b9"/>
    <path id="Path_648" data-name="Path 648" d="M1024.619,753.6s-6.255-6.736-9.623-5.292a33.219,33.219,0,0,0-4.811,2.406s-1.925,6.255-2.887,11.547-1.443,7.7-2.406,9.623-1.925,9.142,7.7,10.1,12.51-4.33,12.51-4.33l2.406-12.51S1026.546,753.6,1024.619,753.6Z" transform="translate(558.41 2847.458)" fill="#ecf0f1"/>
    <path id="Path_649" data-name="Path 649" d="M965.666,502.982s-13.953,31.274-12.029,59.661c0,0-4.811,11.066-1.925,28.387s6.736,51.963,6.736,51.963,12.991,1.443,13.953-.962c0,0,.962-24.057,1.925-25.019s-.481-23.095-1.925-27.425,13.472-47.152,13.472-47.152l-3.849-53.407Z" transform="translate(578.874 2946.516)" fill="#2f2e41"/>
    <path id="Path_650" data-name="Path 650" d="M965.666,502.982s-13.953,31.274-12.029,59.661c0,0-4.811,11.066-1.925,28.387s6.736,51.963,6.736,51.963,12.991,1.443,13.953-.962c0,0,.962-24.057,1.925-25.019s-.481-23.095-1.925-27.425,13.472-47.152,13.472-47.152l-3.849-53.407Z" transform="translate(578.874 2946.516)" opacity="0.1"/>
    <path id="Path_651" data-name="Path 651" d="M968.643,498.675l9.142,19.727s4.33,44.746,6.736,50.52c0,0,.962,16.359,5.293,21.651s7.7,51.963,7.7,51.963,12.028,3.368,12.991,0,3.849-26.463,3.849-26.463.962-19.727-4.33-32.718,6.255-59.661,6.255-59.661,12.028-22.614-5.293-40.9Z" transform="translate(572.048 2948.899)" fill="#2f2e41"/>
    <circle id="Ellipse_255" data-name="Ellipse 255" cx="19.727" cy="19.727" r="19.727" transform="translate(1546.465 3301.789)" fill="#ffb9b9"/>
    <path id="Path_652" data-name="Path 652" d="M1007.951,352.706s-20.689,0-23.576,2.406a3.839,3.839,0,0,1-5.293,0s-7.217.481-9.142,6.255-7.7,13.472-7.7,13.472-8.661,6.255-3.849,22.614.962,42.821.962,42.821-3.849,5.774,0,8.179,5.293,3.368,4.811,5.293,43.784-15.878,43.784-19.246-.962-6.255,0-7.7a6.865,6.865,0,0,0,.962-6.255c-.962-2.406.962-2.887.481-5.293s2.406-20.208,4.33-27.906S1015.171,353.187,1007.951,352.706Z" transform="translate(576.524 2998.64)" fill="url(#linear-gradient)"/>
    <path id="Path_653" data-name="Path 653" d="M908.808,422.671s-19.016-14.438-20.46-9.146S902.3,430.846,902.3,430.846Z" transform="translate(602.786 2975.832)" fill="#ffb9b9"/>
    <path id="Path_654" data-name="Path 654" d="M979.222,356.6s-22.614,40.416-23.095,46.19-.481,6.255-2.406,5.774-28.387-3.368-30.793-2.406-7.217-5.774-7.217-5.774-9.14,9.142-7.216,11.066,7.7,2.887,8.661,5.293,2.406,4.811,6.736,4.33,33.68,7.7,37.529,6.255,4.811-3.849,6.736-3.849,5.774-1.925,5.774-2.406S987.4,395.093,987.4,395.093,1003.28,360.45,979.222,356.6Z" transform="translate(595.147 2997.151)" fill="url(#linear-gradient)"/>
    <path id="Path_655" data-name="Path 655" d="M984.553,298.167c-.273-1.954-1.274-3.726-1.787-5.631a11.689,11.689,0,0,1,1.331-9.077c2.829-4.57,8.385-6.594,12.259-10.32.08,1.9,1.4,3.52,2.853,4.74a34.215,34.215,0,0,1,4.357,3.656,14.322,14.322,0,0,1,2.538,5.141,18.065,18.065,0,0,1,1,6.743,8.455,8.455,0,0,1-2.922,5.992c-1.443,1.141-3.459,1.792-4.157,3.494a5.957,5.957,0,0,0-.232,2.637c.33,5.294.639,10.681-.607,15.837s-4.3,10.136-9.087,12.421c3.933.279,7.949.551,11.766-.442s7.466-3.493,8.781-7.21c.649-1.834.71-3.873,1.633-5.586,2.334-4.335,8.779-4.533,11.945-8.3a12.759,12.759,0,0,0,2.334-5.37c2.673-11.281.8-23.26-3.275-34.116-1.4-3.742-3.149-7.509-6.158-10.139-2.56-2.238-5.83-3.471-9.063-4.524a52.865,52.865,0,0,0-14.539-2.958,18.465,18.465,0,0,0-6.382.745,18.974,18.974,0,0,0-5.616,3.2c-7.77,6.046-13.06,15.708-12.358,25.527.425,5.942,2.942,11.565,6.176,16.567,1.131,1.75,3.8,5.48,6.288,4.38C983.888,304.574,984.849,300.277,984.553,298.167Z" transform="translate(571.87 3035.951)" fill="#2f2e41"/>
    <path id="Path_656" data-name="Path 656" d="M494.6,418.853h24.706V394.147H494.6Zm124.024-24.706H593.918v24.706h24.706Zm-74.365,24.706h24.706V394.147H544.259Z" transform="translate(753.3 2982.795)" fill="#ecf0f1"/>
    <ellipse id="Ellipse_256" data-name="Ellipse 256" cx="20.788" cy="16.215" rx="20.788" ry="16.215" transform="translate(1083.574 3270.887)" fill="#2f2e41"/>
    <path id="Path_657" data-name="Path 657" d="M266.9,428.283s18.709,1.247,22.035-1.247,17.462,3.326,18.709,6.652-19.957,3.742-23.283,3.742-19.125,4.989-19.125,4.989Z" transform="translate(840.998 2970.451)" fill="#a0616a"/>
    <path id="Path_658" data-name="Path 658" d="M202.157,741.88s-8.719,21.988-4.17,24.641,52.316.758,52.316.758,7.961-4.928-1.137-8.34c0,0-7.582-.379-12.51-3.412a72.479,72.479,0,0,1-10.615-8.719s-.379-8.34-3.412-6.445a7.791,7.791,0,0,0-3.412,5.307Z" transform="translate(867.214 2850.525)" fill="#a3cb38"/>
    <path id="Path_659" data-name="Path 659" d="M202.157,741.88s-8.719,21.988-4.17,24.641,52.316.758,52.316.758,7.961-4.928-1.137-8.34c0,0-7.582-.379-12.51-3.412a72.479,72.479,0,0,1-10.615-8.719s-.379-8.34-3.412-6.445a7.791,7.791,0,0,0-3.412,5.307Z" transform="translate(869.214 2850.525)" fill="#424949" opacity="0.1"/>
    <path id="Path_660" data-name="Path 660" d="M323.835,400.944,263,340.353l60.776-60.591-18.529-18.468L226,340.353l79.306,79.059Z" transform="translate(890.588 3056.354)" fill="#ecf0f1"/>
    <path id="Path_661" data-name="Path 661" d="M180.061,752.662s-9.563,24.114-4.573,27.025,57.375.832,57.375.832,8.731-5.4-1.247-9.147c0,0-8.315-.416-13.72-3.742s-11.641-9.562-11.641-9.562-.416-9.147-3.742-7.068a8.545,8.545,0,0,0-3.742,5.821Z" transform="translate(875.865 2846.469)" fill="#a3cb38"/>
    <path id="Path_662" data-name="Path 662" d="M242.111,499.733l-5.821,52.386s-2.079,24.946-8.315,30.351c0,0,0,7.9-2.079,10.394l-2.91,32.845s4.158,12.057,3.742,14.136,1.663,8.731,1.247,9.563-19.957,0-19.957,0l4.158-66.937,12.889-93.131Z" transform="translate(862.875 2946.398)" fill="#1b1464"/>
    <path id="Path_663" data-name="Path 663" d="M242.111,499.733l-5.821,52.386s-2.079,24.946-8.315,30.351c0,0,0,7.9-2.079,10.394l-2.91,32.845s4.158,12.057,3.742,14.136,1.663,8.731,1.247,9.563-19.957,0-19.957,0l4.158-66.937,12.889-93.131Z" transform="translate(861.875 2947.398)" fill="#1b2631" opacity="0.1"/>
    <path id="Path_664" data-name="Path 664" d="M218.338,496.783s-4.573,42.823-6.652,51.97a118.248,118.248,0,0,0-2.495,18.294s-.416,13.3-4.158,17.046a11.238,11.238,0,0,0-3.326,8.315s-3.742,41.992-1.663,46.981,4.158,9.147,2.079,12.473-24.946,3.326-24.946.831,0-4.573-1.247-5.821,0-9.147,0-9.147-4.989-37-.416-47.813,6.652-40.329,6.652-40.329-3.326-33.677-7.484-39.082.832-24.53.832-24.53Z" transform="translate(876.254 2947.685)" fill="#1b1464"/>
    <path id="Path_665" data-name="Path 665" d="M227.436,280.762a5.589,5.589,0,0,0,2.693,2.294c6.1,3.363,11.214,8.239,16.248,13.058a19.074,19.074,0,0,1,.757-12.9c.6-1.392,1.389-2.888.959-4.342a5.405,5.405,0,0,0-2.108-2.522,65.368,65.368,0,0,0-6.43-4.387c-1.557-.931-4.757-3.411-6.544-3.141-.094,2.414-.143,4.572-1.2,6.828C231.561,276.186,227.621,281.183,227.436,280.762Z" transform="translate(855.451 3030.72)" fill="#a0616a"/>
    <circle id="Ellipse_257" data-name="Ellipse 257" cx="17.046" cy="17.046" r="17.046" transform="translate(1087.108 3282.736)" fill="#a0616a"/>
    <path id="Path_666" data-name="Path 666" d="M225.673,315.725s2.91-14.552-5.4-19.541-17.878-10.81-17.878-10.81-2.91-.416-4.158,5.821c0,0-23.7,4.573-26.193,27.025s1.663,55.3,1.663,55.3-3.742,28.688-8.315,44.071c0,0-3.742,3.326,12.889-1.663s45.734,14.136,45.734,14.136,2.91-2.91,2.91-4.989,3.326-14.136,3.326-14.136,2.91-51.139,4.158-56.959S229.415,316.556,225.673,315.725Z" transform="translate(879.313 3024.386)" fill="#ecf0f1"/>
    <path id="Path_667" data-name="Path 667" d="M243.83,250.685a7.109,7.109,0,0,1,3.343-.89,6.362,6.362,0,0,0,3.307-.985c1.61-1.236,1.728-3.625,2.906-5.278,1.705-2.394,5.108-2.682,8.044-2.562,1.8.073,3.73.18,5.243-.791,1.553-1,2.257-2.876,2.78-4.646.619-2.093,1.02-4.652-.515-6.2-1.065-1.078-2.747-1.291-3.931-2.237-1.227-.981-1.732-2.579-2.4-4a10.813,10.813,0,0,0-3.482-4.361c-2.233-1.551-5.084-1.9-7.8-1.87a61.088,61.088,0,0,1-8.146.053c-2.211-.273-4.415-1.009-6.618-.683a9.462,9.462,0,0,0-6.514,5.012,28,28,0,0,0-2.553,8.086l-1.566,7.559a19.947,19.947,0,0,0-.6,7.116c.777,4.9,5.112,8.8,5.411,13.753a8.442,8.442,0,0,1,5.153-6.127,1.612,1.612,0,0,1,1.05-.127c.431.138.682.568.954.929.712.947,2.949,2.383,4.218,1.712C243.251,253.539,242.4,251.652,243.83,250.685Z" transform="translate(856.307 3050.854)" fill="#2f2e41"/>
    <path id="Path_668" data-name="Path 668" d="M185.614,395.136s-2.91,18.294,9.147,16.63c0,0,6.236-.832,7.068,0s31.6-4.573,35.756-9.147c0,0,4.989-1.663,7.484.832s27.44,4.989,19.957-2.495S245.9,391.81,245.9,391.81l-15.8.832s-8.315,2.495-13.3,0-19.125-1.663-19.125-1.663Z" transform="translate(871.56 2984.057)" fill="#a0616a"/>
    <path id="Path_669" data-name="Path 669" d="M201.821,304.226s-18.709,2.079-18.709,29.1v34.508s10.394-4.573,12.473-4.158,10.394-5.4,10.394-5.4,9.563-22.451,8.731-28.688S214.294,305.057,201.821,304.226Z" transform="translate(872.398 3017.176)" fill="#ecf0f1"/>
    <path id="Path_674" data-name="Path 674" d="M201.821,304.226s-18.709,2.079-18.709,29.1v34.508s10.394-4.573,12.473-4.158,10.394-5.4,10.394-5.4,9.563-22.451,8.731-28.688S214.294,305.057,201.821,304.226Z" transform="translate(872.398 3017.176)" fill="#1b2631" opacity="0.04"/>
    <ellipse id="Ellipse_258" data-name="Ellipse 258" cx="16.007" cy="8.315" rx="16.007" ry="8.315" transform="translate(1088.148 3280.865)" fill="#2f2e41"/>
    <ellipse id="Ellipse_259" data-name="Ellipse 259" cx="5.613" cy="13.928" rx="5.613" ry="13.928" transform="translate(1083.574 3276.708)" fill="#2f2e41"/>
    <path id="Path_670" data-name="Path 670" d="M147.462-15150.583s-.042,2.413,1.842,2.648-.235-3.3,1.884-1.413,3.061,2.826,4.71,2.591a29.3,29.3,0,0,1,4.71,0v6.122s-3.532.706-4.71,0-4.71,0-4.71,0h-3.726s.278-5.65,0-6.122S147.462-15150.583,147.462-15150.583Z" transform="translate(1386 18533)" fill="#1b2631"/>
    <path id="Path_671" data-name="Path 671" d="M189.815-14943.061s4-26.367,2.014-47.062-7.678-14.726-5.829-25.869a384.422,384.422,0,0,0,4.279-39.388c.471-11.068-8.478-35.56-8.478-35.56l4.2-1.413s6.4,28.729,6.87,34.617-4.71,40.5-4.945,43.566,1.413,5.888,2.355,9.185,3.3,4.946,3.532,9.42,1.915,5.938,1.272,17.193-.508,8.9-1.272,18.865a118.652,118.652,0,0,1-2.587,17.472,4.034,4.034,0,0,1-.946,2.251s-1.734.43-1.627-.643A7.744,7.744,0,0,1,189.815-14943.061Z" transform="translate(1386 18533)" fill="#fff"/>
    <path id="Path_672" data-name="Path 672" d="M191.8-14921.244l-5.137-.951s-4.123,1.268-4.757,1.648" transform="translate(1386 18533)" fill="none" stroke="#6f1e51" stroke-linecap="round" stroke-width="3"/>
    <path id="Path_673" data-name="Path 673" d="M191.8-14921.244l-5.137-.951s-4.123,1.268-4.757,1.648" transform="translate(1346 18532)" fill="none" stroke="#6f1e51" stroke-linecap="round" stroke-width="3"/>
  </g>
</svg>
