<svg id="vision" xmlns="http://www.w3.org/2000/svg" xmlns:xlink="http://www.w3.org/1999/xlink" width="682" height="494.85" viewBox="0 0 682 494.85">
  <defs>
    <linearGradient id="linear-gradient" x1="0.5" x2="0.5" y2="1" gradientUnits="objectBoundingBox">
      <stop offset="0" stop-color="#fe9b24"/>
      <stop offset="0.46" stop-color="#f77824"/>
      <stop offset="1" stop-color="#ff5a1a"/>
    </linearGradient>
  </defs>
  <path id="Path_587" data-name="Path 587" d="M304.684,272.528A66.235,66.235,0,0,1,207.3,270.4L59.514,410.292,267.332,629.844l198.09-187.5Z" transform="translate(-59.514 -136.288)" fill="#f77824"/>
  <path id="Path_588" data-name="Path 588" d="M346.859,248.155a57.814,57.814,0,0,0,41.762-17.762l-41.21-43.537-44.03,41.676a57.842,57.842,0,0,0,43.477,19.623Z" transform="translate(-149.522 -105.452)" fill="url(#linear-gradient)"/>
  <path id="Path_589" data-name="Path 589" d="M764.681,324.036a104,104,0,0,1-104.1,104.1q-.89,0-1.779-.019c-2.5-.038-4.965-.164-7.419-.379a104.105,104.105,0,1,1,113.3-103.7Z" transform="translate(-242.933 -117.661)" fill="#9e9c9b"/>
  <path id="Path_590" data-name="Path 590" d="M721.834,286.362a103.518,103.518,0,0,0,12.548-37.273,104.1,104.1,0,0,0-175.4,60.94,103.708,103.708,0,0,0,63.046,28.75c2.454.215,4.921.341,7.419.379q.89.019,1.779.019a103.947,103.947,0,0,0,90.612-52.814Z" transform="translate(-243.859 -117.66)" opacity="0.1"/>
  <rect id="Rectangle_167" data-name="Rectangle 167" width="167.192" height="186.75" transform="translate(296.512 307.951)" fill="#ecf0f1"/>
  <path id="Path_591" data-name="Path 591" d="M760.034,415.613a104.223,104.223,0,0,1-72.94,60.82h23.18v186.75H556.066l86.542-149.9,19.83-34.347,1.445-2.5,65.634-113.678Z" transform="translate(-242.785 -170.374)" opacity="0.1"/>
  <path id="Path_592" data-name="Path 592" d="M703.789,306.924,790.7,457.454,877.6,607.983H529.972l86.908-150.53Z" transform="translate(-195.605 -113.281)" fill="url(#linear-gradient)"/>
  <rect id="Rectangle_168" data-name="Rectangle 168" width="658.674" height="1.262" transform="translate(23.326 493.44)" fill="#2f2e41"/>
  <path id="Path_593" data-name="Path 593" d="M158.93,733.242l-1.151,9.6-6.526,3.071-7.293-2.3-4.99,2.3-1.535-8.828,8.828-9.98Z" transform="translate(-50.725 -268.363)" fill="#9f616a"/>
  <path id="Path_594" data-name="Path 594" d="M207.5,802.577s5.951-6.938,6.046-3.469,13.146,15.368,13.146,15.368,20.344,6.142,4.606,9.98-50.284-7.293-51.435-9.6,9.6-19.96,10.748-18.425S197.52,803.345,207.5,802.577Z" transform="translate(-103.901 -330.405)" fill="#9e9c9b"/>
  <path id="Path_595" data-name="Path 595" d="M230.058,625.531s2.3,18.041,0,20.728-1.152,8.061,0,8.828-1.535,3.839-3.455,5.374S222,668.906,222,668.906s-10.364,27.253-10.364,29.94-4.606,8.445-4.222,10.364-2.687,8.061-2.3,9.212-4.99,11.515-3.455,13.051,22.647,6.909,21.5,3.455S221.23,727.25,222,727.25s4.222-4.222,3.455-5.758,23.031-41.839,23.031-41.839Z" transform="translate(-111.874 -267.361)" fill="#2f2e41"/>
  <path id="Path_596" data-name="Path 596" d="M207.5,802.577s5.951-6.938,6.046-3.469,13.146,15.368,13.146,15.368,20.344,6.142,4.606,9.98-50.284-7.293-51.435-9.6,9.6-19.96,10.748-18.425S197.52,803.345,207.5,802.577Z" transform="translate(-100.747 -330.405)" fill="#9e9c9b" opacity="0.1"/>
  <path id="Path_597" data-name="Path 597" d="M230.058,625.531s2.3,18.041,0,20.728-1.152,8.061,0,8.828-1.535,3.839-3.455,5.374S222,668.906,222,668.906s-10.364,27.253-10.364,29.94-4.606,8.445-4.222,10.364-2.687,8.061-2.3,9.212-4.99,11.515-3.455,13.051,22.647,6.909,21.5,3.455S221.23,727.25,222,727.25s4.222-4.222,3.455-5.758,23.031-41.839,23.031-41.839Z" transform="translate(-111.874 -267.361)" opacity="0.1"/>
  <path id="Path_598" data-name="Path 598" d="M239.5,729.282l4.222,10.748L241.8,755l-12.283-.767-6.909-6.142V735.04Z" transform="translate(-82.162 -269.168)" fill="#9f616a"/>
  <path id="Path_599" data-name="Path 599" d="M293.45,801.566s4.223-13.818,6.526-9.98a60.748,60.748,0,0,1,3.838,7.677s18.808,12.283,23.8,12.283,9.6,6.142,3.071,8.445-56.425,5.374-57.193,0,.768-22.647,3.071-20.728S290.763,805.4,293.45,801.566Z" transform="translate(-138.416 -328.401)" fill="#9e9c9b"/>
  <path id="Path_600" data-name="Path 600" d="M315.064,538.279s16.919,11.5,17.686,13.033,10.584,6.256,2.524,10.095-29.422-20.44-29.422-20.44Z" transform="translate(-150.434 -235.158)" fill="#9f616a"/>
  <path id="Path_601" data-name="Path 601" d="M303.7,502.991s12.283,23.8,9.98,24.566-11.515,5.374-11.515,5.374l-4.222-24.182Z" transform="translate(-147.515 -222.134)" fill="#575a88"/>
  <path id="Path_602" data-name="Path 602" d="M303.7,502.991s12.283,23.8,9.98,24.566-11.515,5.374-11.515,5.374l-4.222-24.182Z" transform="translate(-147.515 -222.134)" opacity="0.1"/>
  <path id="Path_603" data-name="Path 603" d="M274.4,534.519s2.687,19.96,1.535,24.182.768,67.557-.768,71.011-2.687,25.718-2.687,28.4,3.071,24.566,3.839,26.485,3.071,8.445,1.919,11.515-16.889,10.748-19.192,8.061-.384-11.131-2.3-11.515-4.222-18.425-4.222-18.425l-12.667-70.628s-23.8-59.112-18.425-64.87S274.4,534.519,274.4,534.519Z" transform="translate(-118.984 -233.702)" fill="#2f2e41"/>
  <circle id="Ellipse_251" data-name="Ellipse 251" cx="18.808" cy="18.808" r="18.808" transform="translate(122.407 126.936)" fill="#9f616a"/>
  <path id="Path_604" data-name="Path 604" d="M280.571,306.526S274.43,322.647,275.2,326.1s-18.041-6.142-18.041-6.142,1.152-18.808,0-23.8S280.571,306.526,280.571,306.526Z" transform="translate(-132.447 -145.428)" fill="#9f616a"/>
  <path id="Path_605" data-name="Path 605" d="M212.055,421.564c.084,3.22.138,5.14.138,5.14s-1.152,17.657.768,23.415,1.919,9.98,3.071,13.818c.338,1.117,4.932,1.716,11.385,1.981,5.919.242,13.4.207,20.582.042,11.892-.276,22.977-.914,24.842-1.255,4.222-.768-.768-7.293.768-10.748s-2.687-47.6-2.687-47.6.384-24.95-1.535-34.546-9.213-24.95-10.748-26.869-.384-3.071,3.071-5.374,0-11.132,0-11.132c-6.525-5.374-23.031-6.142-23.031-6.142s-25.334,26.1-26.869,31.475c-.929,3.247-.595,29.188-.188,49.217C211.779,410.525,211.944,417.226,212.055,421.564Z" transform="translate(-115.504 -155.442)" fill="#ecf0f1"/>
  <path id="Path_606" data-name="Path 606" d="M255.564,555.314s14.586,29.94,3.071,31.859-17.273-27.253-17.273-27.253Z" transform="translate(-126.631 -241.445)" fill="#9f616a"/>
  <path id="Path_607" data-name="Path 607" d="M285.282,264.945c.665-3.226-1.8-6.241-4.4-8.268a32.131,32.131,0,0,0-19.768-6.741c-5.034.027-10.229,1.359-14.033,4.655-4.438,3.845-6.462,10.01-6.089,15.869s2.921,11.417,6.358,16.177c1.65,2.285,4.3,4.65,6.936,3.654a6.446,6.446,0,0,0,2.565-2.167,39.788,39.788,0,0,0,4.4-6.758,26.916,26.916,0,0,1,3.1-5.335,6.294,6.294,0,0,1,5.389-2.468c1.687.233,3.342,1.421,4.952.863,1.79-.621,2.223-2.91,2.365-4.8.156-2.071.046-4.47.621-6.428C278.306,263.533,284.973,266.49,285.282,264.945Z" transform="translate(-126.48 -128.734)" fill="#2f2e41"/>
  <path id="Path_608" data-name="Path 608" d="M211.387,438.785c4.3,15.5,14.16,41.632,14.724,42.757.142.288.365.852.637,1.6,5.919.242,13.4.207,20.582.042-1.113-2.91-2.411-5.719-2.411-6.629,0-1.919-9.212-51.435-9.212-51.435s7.293-21.879,13.818-40.3-19.384-14.778-19.384-14.778c-13.818-3.455-16.313,2.495-16.313,2.495s-1.217,32.358-2.875,47.681c-.426,3.927-.879,6.733-1.347,7.592C208.991,428.927,209.821,433.158,211.387,438.785Z" transform="translate(-114.836 -172.663)" opacity="0.1"/>
  <path id="Path_609" data-name="Path 609" d="M234.136,350.62s17.657,7.293,11.132,25.718-13.818,40.3-13.818,40.3,9.212,49.516,9.212,51.435,5.758,12.283,3.455,14.2-17.657,5.758-18.041,3.838a129.8,129.8,0,0,0-4.222-13.051c-.768-1.535-18.808-49.516-16.505-53.738,1.695-3.107,3.182-31.574,3.849-46.394a24.367,24.367,0,0,1,12.7-20.515A16.918,16.918,0,0,1,234.136,350.62Z" transform="translate(-113.264 -165.723)" fill="#ecf0f1"/>
  <rect id="Rectangle_169" data-name="Rectangle 169" width="22.713" height="22.713" transform="translate(169.067 297.226)" fill="#e91e63"/>
  <path id="Path_624" data-name="Path 624" d="M6.94,0A6.94,6.94,0,1,1,0,6.94,6.94,6.94,0,0,1,6.94,0Z" transform="translate(173.484 283.346)" fill="#707070"/>
  <circle id="Ellipse_253" data-name="Ellipse 253" cx="34.268" cy="34.268" r="34.268" transform="translate(414.386 1.073)" fill="url(#linear-gradient)"/>
  <path id="Path_610" data-name="Path 610" d="M730.318,116.579c0,25.855-15.371,34.883-34.331,34.883s-34.331-9.028-34.331-34.883,34.331-58.747,34.331-58.747S730.318,90.723,730.318,116.579Z" transform="translate(-281.757 -57.831)" fill="#a3cb38"/>
  <path id="Path_611" data-name="Path 611" d="M646.5,89.675l.351-21.638,14.633-26.77L646.91,64.642l.158-9.729,10.085-19.368L647.11,52.338h0l.284-17.5,10.8-15.42L647.439,32.087,647.616,0,646.5,42.478l.092-1.753-10.98-16.806,10.8,20.17-1.023,19.544-.03-.519L632.705,45.428l12.619,19.519L645.2,67.39l-.023.037.011.2-2.6,49.583h3.468l.416-25.611L659.06,72.13Z" transform="translate(-233.523)" fill="#3f3d56"/>
  <path id="Path_612" data-name="Path 612" d="M861.95,173.235c-8.2,24.519-25.644,28.2-43.625,22.188s-29.693-19.454-21.49-43.973,51.2-44.819,51.2-44.819S870.154,148.716,861.95,173.235Z" transform="translate(-330.664 -75.842)" fill="#a3cb38"/>
  <path id="Path_613" data-name="Path 613" d="M765.77,133.419l7.2-20.409,22.37-20.744L774.1,109.808l3.237-9.177,15.708-15.167L778.191,98.2h0l5.822-16.5,15.133-11.2-14.218,8.6L795.278,48.73,780.742,88.659l.643-1.633L776.3,67.605,780.15,90.16l-7.171,18.209.136-.5L766.723,87.08l5.774,22.514-.9,2.277-.033.028-.054.194-18.194,46.2,3.289,1.1,8.521-24.156,18.115-14.471Z" transform="translate(-278.04 -17.986)" fill="#3f3d56"/>
  <path id="Path_614" data-name="Path 614" d="M592.594,156.083c9.3,24.125-1.8,38.077-19.489,44.9s-35.281,3.923-44.579-20.2,10.906-67.163,10.906-67.163S583.295,131.957,592.594,156.083Z" transform="translate(-231.717 -78.419)" fill="#a3cb38"/>
  <path id="Path_615" data-name="Path 615" d="M517.218,139.936l-7.454-20.317,4.027-30.241-5.2,27.054-3.352-9.136,2.445-21.7-3.331,19.281h0l-6.028-16.43,4.531-18.271L497.38,85.864l-11.374-30L500.24,95.9l-.544-1.668L483.407,82.5l17.334,14.935,6.074,18.6-.214-.473-18.171-11.95,18.794,13.674.76,2.327-.008.042.082.184,15.41,47.2,3.236-1.247-8.823-24.047,4.744-22.695Z" transform="translate(-178.419 -20.617)" fill="#3f3d56"/>
  <path id="Path_616" data-name="Path 616" d="M510.037,499.672c-2.127,3.393-4.887,3.314-7.376,1.754s-3.763-4.009-1.636-7.4,9.339-4.885,9.339-4.885S512.164,496.279,510.037,499.672Z" transform="translate(-222.072 -217.02)" fill="#6c63ff"/>
  <path id="Path_617" data-name="Path 617" d="M911.864,339.651c.394,3.986-1.838,5.611-4.761,5.9s-5.43-.869-5.823-4.854,4.4-9.579,4.4-9.579S911.47,335.665,911.864,339.651Z" transform="translate(-370.19 -158.698)" fill="#6c63ff"/>
  <path id="Path_618" data-name="Path 618" d="M492.1,385.125c-2.127,3.393-4.887,3.313-7.376,1.753s-3.763-4.009-1.636-7.4,9.339-4.885,9.339-4.885S494.228,381.732,492.1,385.125Z" transform="translate(-215.452 -174.743)" fill="#6c63ff"/>
  <path id="Path_619" data-name="Path 619" d="M223.827,296.229s6.773,9.554,9.711,19.02,3.917,5.55,5.223,20.892,5.223,37.538,5.223,37.538-1.632,2.938-2.285,0-2.938-15.995-2.938-15.995v-11.1s-2.611-15.016-3.917-20.892-3.591-9.141-4.9-14.037-6.121-11.424-6.121-11.424Z" transform="translate(-82.612 -109.334)" fill="url(#linear-gradient)"/>
  <path id="Path_621" data-name="Path 621" d="M221.5,299.043l-1.56,3.269,3.417.743,1.783-2.229-1.04-1.783" transform="translate(-81.178 -110.373)" fill="#ff5a1a"/>
  <path id="Path_620" data-name="Path 620" d="M219.52,292.322a22.508,22.508,0,0,0,4.16,1.863l-.743,2.377h-2.674l-2.674-1.634Z" transform="translate(-80.309 -107.892)" fill="url(#linear-gradient)"/>
</svg>
