<svg xmlns="http://www.w3.org/2000/svg" width="325" height="325" viewBox="0 0 325 325">
  <g id="web" transform="translate(-764 -2128)">
    <g id="Ellipse_40" data-name="Ellipse 40" transform="translate(764 2128)" fill="none" stroke="#ff5a1a" stroke-width="15">
      <circle cx="162.5" cy="162.5" r="162.5" stroke="none"/>
      <circle cx="162.5" cy="162.5" r="155" fill="none"/>
    </g>
    <g id="Group_81" data-name="Group 81" transform="translate(-2327 18249)">
      <circle id="Ellipse_58" data-name="Ellipse 58" cx="100" cy="100" r="100" transform="translate(3154 -16058)" fill="#fff"/>
      <g id="web-SJ-GphQuE" transform="translate(3175.166 -16036.886)">
        <g id="Group_74" data-name="Group 74" transform="translate(17.834 17.886)">
          <path id="Path_13" data-name="Path 13" d="M9.6,35.158H34.2v-5.6a7.063,7.063,0,0,1,0-13.419v-4.55A129.293,129.293,0,0,1,12.747,9.226,122.152,122.152,0,0,0,9.6,35.158Z" transform="translate(24.361 23.22)"/>
          <circle id="Ellipse_55" data-name="Ellipse 55" cx="2.6" cy="2.6" r="2.6" transform="translate(58.217 43.464)"/>
          <path id="Path_14" data-name="Path 14" d="M34.2,30.363V.068C25.785,1.739,18.336,12.64,13.89,28.153A125.187,125.187,0,0,0,34.2,30.363ZM12.9,89.548A131.883,131.883,0,0,1,34.2,87.62V62.955H9.6a121.749,121.749,0,0,0,3.3,26.593Zm39.5,3.628a7.057,7.057,0,0,1-12.926-1.008c-.255-.007-.516-.009-.773-.016v29.181c8.25-1.641,15.573-12.136,20.046-27.159q-3.1-.578-6.347-1ZM67.82,62.955a126.8,126.8,0,0,1-3.382,27.808,83.024,83.024,0,0,1,20.077,7.23A60.521,60.521,0,0,0,97.271,62.955Zm-2.994-30.71a128.36,128.36,0,0,1,2.994,26.2H97.271a60.514,60.514,0,0,0-11.449-33.3,86.093,86.093,0,0,1-21,7.1ZM59.178,28.7C54.752,12.894,47.226,1.759,38.711.068V30.41A128.389,128.389,0,0,0,59.178,28.7Zm4.55-.821a82.8,82.8,0,0,0,19.256-6.371A60.945,60.945,0,0,0,49.765,1.31c5.9,5.627,10.775,14.907,13.963,26.568ZM34.2,121.335V92.127A127.9,127.9,0,0,0,14.08,93.908C18.546,109.073,25.9,119.685,34.2,121.335Z" transform="translate(24.361 -0.068)"/>
          <circle id="Ellipse_56" data-name="Ellipse 56" cx="3.451" cy="3.451" r="3.451" transform="translate(14.512 57.182)"/>
          <path id="Path_15" data-name="Path 15" d="M33.9,77.679a82.686,82.686,0,0,0-18.661,6.209A60.872,60.872,0,0,0,47.515,103C41.82,97.58,37.09,88.758,33.9,77.679ZM10.382,41.364a7.921,7.921,0,0,1,15.306.361,2.18,2.18,0,0,1,1.15-.361h2.629a127.511,127.511,0,0,1,3.168-26.922A79.189,79.189,0,0,1,12.409,6.786,60.541,60.541,0,0,0,.016,41.364ZM87.658,78.039c-3.186,10.91-7.875,19.6-13.5,24.967a60.908,60.908,0,0,0,31.792-18.56,80.056,80.056,0,0,0-18.287-6.407Zm.029-32.166h-24.6v24.69c.241,0,.485.007.724.013a7.071,7.071,0,0,1,13.73,1.071q3.453.453,6.775,1.08a121.159,121.159,0,0,0,3.37-26.854ZM84.669,15.991a132.288,132.288,0,0,1-21.581,1.846v4.5a7.063,7.063,0,0,1,0,13.419v5.6h24.6a122.345,122.345,0,0,0-3.019-25.373Z" transform="translate(-0.016 17.014)"/>
          <circle id="Ellipse_57" data-name="Ellipse 57" cx="2.6" cy="2.6" r="2.6" transform="translate(67.929 87.169)"/>
          <path id="Path_16" data-name="Path 16" d="M29.47,62.064H26.841a2.183,2.183,0,0,1-1.15-.361,7.921,7.921,0,0,1-15.306.361H.016A60.526,60.526,0,0,0,12.288,96.489a85.8,85.8,0,0,1,20.474-6.976A127.228,127.228,0,0,1,29.47,62.064Zm4.288-35.789C36.948,14.947,41.739,5.933,47.522.419a60.892,60.892,0,0,0-32.177,19,75.535,75.535,0,0,0,18.413,6.858Z" transform="translate(-0.016 0.824)"/>
        </g>
      </g>
    </g>
  </g>
</svg>
